<?xml version="1.0" encoding="UTF-8"?>
<svg id="Layer_2" data-name="Layer 2" xmlns="http://www.w3.org/2000/svg" viewBox="0 0 256.99 392.12">
  <defs>
    <style>
      .cls-1 {
        fill: none;
      }
    </style>
  </defs>
  <g id="OBJECTS">
    <g>
      <path class="cls-1" d="M55.75,114.25c-2.75-.14-5.5-.57-8.22-.91-.68-.08-1.37-.14-2.05-.22-.74.45-1.48.9-2.24,1.33-1.88,1.07-3.78,2.13-5.86,2.78-.27.08-.36-.31-.11-.41,2.07-.85,3.67-2.45,5.27-3.96.02-.02.04-.03.06-.05-1.76-.16-3.52-.3-5.29-.39-6.85-.37-13.72-.01-20.56.29-.18,0-.17-.26,0-.28,6.98-.81,13.98-1.56,21-1.88,1.65-.08,3.29-.11,4.93-.1-1.56-.67-3.13-1.33-4.73-1.91-3.79-1.37-7.7-2.34-11.69-2.94-.23-.03-.17-.42.05-.4,4.13.26,8.24.87,12.25,1.88,2.09.52,4.15,1.14,6.15,1.94.82.33,1.6.66,2.32,1.05.17-.03.35-.05.5-.03.06,0,.42.1.34.08-.09-.02.23.03.24.03.26.08.4.38.27.62,1.92.21,3.87.52,5.74,1.06-.34-.57-.68-1.15-1.02-1.72-1.09-1.81-2.33-3.2-4.17-4.25-.85-.49-1.72-.97-2.51-1.54-2.79-.78-5.64-1.38-8.53-1.63-11.7-1.01-23.54,2.97-32.27,10.77,3.35.14,6.56,1.63,9.42,3.39,3.56,2.2,6.93,4.52,10.97,5.79,3.86,1.21,7.65,1.46,11.66,1.09,4.03-.38,7.89-1.51,11.64-3.01,3.02-1.21,5.91-2.74,8.93-3.92-.61-.49-1.19-1.01-1.71-1.57-.29-.31-.54-.64-.8-.97Z"/>
      <path class="cls-1" d="M127.03,185.19s0-.09,0-.14c.87-10.04,2.16-20.27,6.41-29.5.06-.14.27-.03.21.1-2.52,5.78-3.46,12.11-4.1,18.34-.3,2.93-.39,5.87-.58,8.8,1.83-4.1,4.29-7.85,6.68-11.64,2.32-3.67,4.61-7.49,5.59-11.77,1.07-4.73.48-9.65-.44-14.35-.46-2.36-1.16-4.73-1.19-7.15-.02-1.54.29-2.94.91-4.27-1.85,1.19-3.55,2.53-5,4.23-1.77,2.08-3.2,4.4-4.35,6.88-2.19,4.73-3.48,9.93-4.37,15.05-.92,5.3-1.33,10.71-1.03,16.08.17,3.14.58,6.27,1.24,9.35Z"/>
      <path class="cls-1" d="M174.28,31.94c.68,2.45.65,5.05.53,7.57-.05,1.02-.09,2.07-.17,3.11.5-.63,1.06-1.23,1.7-1.81,1.2-1.1,2.52-2.08,3.86-3.02.38-.64.81-1.25,1.22-1.86.71-1.04,1.36-2.13,1.99-3.22,1.32-2.25,2.36-4.66,2.9-7.22.03-.14.23-.08.21.06-.44,2.64-1.03,5.25-2.03,7.74-.32.8-.71,1.55-1.13,2.3.31-.22.62-.43.93-.65,6.21-4.54,11.73-10.04,16.1-16.38.1-.14.32,0,.23.13-3.98,5.99-8.6,11.57-13.97,16.36-.89.79-1.82,1.54-2.76,2.28.41-.02.82-.02,1.22.01,3.22.22,6.3,1.37,9.56,1.12.17-.01.16.24,0,.26-2.97.34-5.95-.19-8.93-.14-1.25.02-2.52.08-3.74.39-.13.03-.25.08-.37.12-.95.74-1.88,1.49-2.79,2.29-2.2,1.94-4.6,4.39-5.68,7.17-.03.09-.1.15-.17.19-.88,1.6-2.09,3.01-3.3,4.38-.87.98-1.8,1.91-2.82,2.73,2.8-.45,5.61-.85,8.42-1.25,3.52-.5,7.09-.92,10.54-1.84,10.39-2.79,17.98-11.32,21.99-21,4.15-10.03,5.6-20.98,10.6-30.68-4.25.6-8.46,1.48-12.59,2.63-7.68,2.14-15.12,5.2-22.09,9.07-3.08,1.71-6.14,3.55-8.64,6.06-2.21,2.22-3.49,4.78-4.08,7.78,1.51,1.5,2.67,3.23,3.25,5.32Z"/>
      <path class="cls-1" d="M90.81,130.77c-.26-1.88-.71-3.74-.89-5.62-2.1-2.49-3.44-5.59-3.5-8.72-.36.55-.72,1.09-1.08,1.62-1.25,1.83-2.73,3.54-4.83,4.39-1.07.43-2.19.6-3.33.6-.22.95-.58,1.86-.95,2.8-.4,1.01-.79,2.03-1.18,3.04.06,2.26.16,4.49.49,6.75.41,2.8,1.05,5.48,2.16,8.09.12.29-.29.54-.43.25-1.26-2.7-2.43-5.51-3.15-8.41-.24-.94-.4-1.89-.54-2.84-.69,1.85-1.34,3.71-1.87,5.61-1.63,5.88-2.62,11.89-2.9,17.99-.01.23-.36.24-.37,0-.09-6.1.39-12.24,1.55-18.24.52-2.69,1.06-5.39,1.86-8.02-.33.31-.66.62-1,.93-1.8,1.67-3.34,3.51-4.75,5.52-.13.19-.43.03-.32-.18,1.16-2.19,2.29-4.35,3.83-6.3.75-.95,1.57-1.81,2.45-2.64.27-.26.58-.53.89-.79.45-1.3.98-2.61,1.7-3.75-.53-.09-1.05-.19-1.57-.3-3.96-.89-8.06-1.87-11.71-3.71-.13-.06-.25-.14-.37-.21-2,2.83-2.98,6.28-3.73,9.64-.96,4.28-1.87,8.68-1.75,13.09.13,4.53,1.63,8.9,3.45,13,3.43,7.7,7.52,15.02,11.87,22.22,1.02-3.87,1.04-8.01,3.46-11.4,2.04-2.86,4.97-4.95,7.71-7.08,3.02-2.36,5.56-4.91,7.21-8.42,1.75-3.72,2.29-7.88,2.15-11.96-.08-2.31-.26-4.64-.57-6.93Z"/>
      <path class="cls-1" d="M169.66,58.19c2.08,1.21,4.07,2.67,5.95,4.08,2.69,2.02,5.22,4.25,7.62,6.61,4.84,4.77,8.81,10.15,12.35,15.94.07.12-.11.23-.19.11-3.61-5.58-8.21-10.63-13.15-15.06-1.17-1.05-2.39-2.05-3.62-3.03.89,1.29,1.69,2.63,2.39,4.03,1.89,3.79,3.44,7.67,4.95,11.62.07.17-.22.29-.29.12-1.73-3.71-3.48-7.49-5.65-10.97-1.1-1.77-2.24-3.54-3.53-5.19-.81-1.03-1.68-2-2.5-3.02-1.68-1.15-3.43-2.18-5.17-3.23.27.3.54.61.78.95,1.41,1.91,2.19,4.02,2.88,6.27.68,2.22,2.25,3.85,3.16,5.95.17,0,.35.06.47.24,2.2,3.11,3.5,6.84,5.45,10.11,1.88,3.14,4.08,6.13,6.97,8.42,4.79,3.77,11.72,4.67,15.81,9.27,1.2-4.34,1.88-8.79,1.7-13.31-.33-8.38-3.53-16.56-9.55-22.49-2.77-2.73-6.09-4.97-9.74-6.35-3.35-1.27-6.94-1.83-10.53-2.08-.53.08-1.05.15-1.58.23-1.66.26-3.33.52-4.99.77Z"/>
      <path class="cls-1" d="M200.5,225.88c7.71-4.13,16.28-5.77,24.91-6.56.09,0,.08.12,0,.13-8.28,1.08-16.83,3.18-23.94,7.72-3.07,1.96-5.69,4.43-8.08,7.16-.4.46-.77.94-1.14,1.43.1-.05.2-.11.31-.16,5.54-2.66,12.24-2.62,18.26-2.53,6.31.09,12.64.47,18.83-1.06,11.08-2.74,19.03-11.62,25.94-20.18-5.33-3.5-12.5-4.43-18.73-4.4-11.43.06-22.77,4.21-31.95,10.93-5.06,3.7-9.59,8.46-13.15,13.81,2.53-2.55,5.59-4.61,8.75-6.3Z"/>
      <path class="cls-1" d="M108.94,238.4c-.03-1.62-.03-3.25-.02-4.87.03-3.17.11-6.35.19-9.52.15-6.29.37-12.68-1.38-18.79-.07-.24.29-.33.37-.1,1.85,5.98,2.19,12.22,2.51,18.43.17,3.29.35,6.58.47,9.87.34-1.11.7-2.22,1.07-3.29,1.78-5.18,3.74-10.27,4.3-15.76.55-5.41.04-10.85-1.54-16.05-1.67-5.49-4.56-10.48-6.96-15.66-2.05-4.43-3.75-8.97-5.33-13.58-1.09,5.69-2.05,11.41-2.59,17.18-1.02,10.82-.05,21.6,2.51,32.15,1.25,5.16,2.82,10.24,4.62,15.23.58,1.6,1.18,3.19,1.79,4.77Z"/>
      <path class="cls-1" d="M188.49,221.25c.91-3.14,2.12-6.18,3.43-9.17,4.75-10.83,10.47-21.27,17.55-30.75,3.59-4.8,7.34-9.37,10.08-14.74,2.69-5.28,4.67-10.96,5.76-16.79.04-.22.37-.13.34.09-.98,6.34-2.76,12.46-5.44,18.29-2.5,5.42-5.82,10.37-9,15.4-3.11,4.93-6.13,9.94-8.94,15.05-2.53,4.61-4.84,9.32-7,14.11.18-.26.36-.52.54-.78,4.43-6.27,9.82-11.82,14.84-17.6,5.09-5.86,9.83-11.86,13.4-18.79,3.56-6.92,6.13-14.28,7.48-21.95,1.29-7.32,1.85-14.75,3.44-22.02-5.38,5.7-11.1,11.05-16.68,16.56-5.34,5.28-10.5,10.78-14.83,16.93-4.56,6.49-7.88,13.8-10.25,21.35-2.13,6.79-3.52,13.76-4.48,20.81,0,4.67-.07,9.34-.23,14Z"/>
      <path class="cls-1" d="M113.98,265.25c-1.98-2.41-4.32-4.52-6.65-6.59-2.76-2.45-5.43-5-8.14-7.51-5.69-5.28-11.29-10.64-16.9-16-.18-.17.09-.44.27-.27,3.34,3.1,6.83,6.05,10.29,9.02,3.07,2.63,6.19,5.2,9.37,7.7,2.89,2.27,5.9,4.39,8.75,6.72,1.13.92,2.21,1.9,3.25,2.93-.64-.96-1.29-1.92-1.92-2.87-3.88-5.81-7.76-11.69-12.29-17.02-3.83-4.5-8.18-8.57-12.94-12.08-8.78-6.48-18.87-11.05-29.51-13.41,4.54,4.11,8.3,8.97,11.88,13.93,3.7,5.13,7.23,10.42,11.47,15.13,2.1,2.34,4.36,4.53,6.89,6.41,2.92,2.18,6.11,3.81,9.4,5.35,5.69,2.66,11.91,4.82,16.89,8.73-.04-.05-.08-.11-.12-.16Z"/>
      <path class="cls-1" d="M175.05,279.22c-.39-16.65-1.63-33.26-5.67-49.46-.06-.24.3-.34.37-.1,1.22,4.65,2.39,9.32,3.39,14.03,1.48,6.95,2.76,13.95,3.65,21,.32-5.45.74-10.9,1.03-16.35.38-6.99.84-14.18.01-21.15-.41-3.51-1.55-6.87-2.78-10.17-1.23-3.3-2.48-6.59-3.73-9.88-1.27-3.35-2.62-6.69-3.78-10.08-.83-2.42-1.37-4.94-2.28-7.32-.63,3.49-1.62,6.91-2.5,10.35-1.08,4.25-1.82,8.62-2.09,13-.24,3.91-.11,7.85.47,11.72.57,3.8.93,7.68,1.83,11.42.94,3.88,2.24,7.65,3.1,11.56.75,3.44,1.58,6.83,2.61,10.21,2.14,7.02,4.9,14.22,6.37,21.54,0-.1,0-.2,0-.31Z"/>
      <path class="cls-1" d="M103.22,325.2c-.07-.23.28-.32.35-.1,3.03,8.94,5.14,18.16,8.21,27.09.85,2.49,1.79,4.95,2.8,7.39-.1-.71-.19-1.42-.26-2.13-.61-6.27.37-12.51.56-18.77.19-6.18-.24-12.29-1.42-18.36-.54-2.78-1.25-5.53-2.62-8.03-1.24-2.25-3.03-4.1-4.95-5.79-3.19-2.8-6.68-5.22-9.45-8.43-1.47,7.17-2.24,14.62-1.63,21.91,1.01,12.14,6.63,22.66,12.8,32.91,1.87,3.1,3.8,6.25,5.61,9.47-4.63-11.95-6.03-25-10-37.17Z"/>
      <path class="cls-1" d="M98.86,284.62c-1.43-.08-2.87-.07-4.34,0-3.61.18-7.04,1.32-10.57,1.98-3.6.68-7.08.81-10.66-.11-3.52-.91-6.67-2.57-9.99-4.01-.17-.07-.02-.33.15-.25,3.5,1.52,7.42,2.88,11.25,3.2,3.81.31,7.22-.75,10.73-2.1,1.77-.68,3.66-1.29,5.57-1.67-2.8-1.19-5.52-2.54-8.06-4.2-.01,0-.03-.02-.04-.03-.49-.15-.97-.31-1.46-.44-3.02-.81-6.24-.54-9.32-1.1-5.69-1.02-11.05-4-15.45-7.68-.13-.11.05-.33.18-.23,4.94,3.69,10.85,5.42,16.97,5.64,1.42.05,2.83.04,4.23.09-2.64-2.26-5.15-4.69-7.89-6.84-8.39-6.58-18.26-11.3-28.89-12.85-.2-.03-.15-.37.05-.34,5.96.65,11.67,1.86,17.25,4.1,4.79,1.92,9.55,4.23,13.72,7.29,2.56,1.87,4.89,4.02,7.3,6.08-1.16-1.88-2.32-3.76-3.61-5.56-2.88-4.02-6.29-7.78-10.89-9.81-.13-.06-.03-.28.1-.23,4.62,1.8,8.45,4.99,11.72,8.66,1.73,1.94,3.36,3.98,4.95,6.03.93,1.2,1.78,2.47,2.65,3.71.36.5.68,1.02.96,1.57.55.31,1.1.63,1.64.98.11.07.22.14.33.21,3.94,2.15,8.16,3.74,12.4,5.2,1.44.5,2.89.99,4.34,1.48,1.72.48,3.42,1.01,5.06,1.64-4.2-3.26-7.81-7.17-11.46-11.08-8.89-9.56-19.04-17.7-31-23.1-11.55-5.21-25.2-7.28-37.07-2.01,5.81,4.28,10.95,9.46,14.99,15.46,3.81,5.66,6.34,12.29,11.19,17.2,2.58,2.62,5.8,4.58,9.06,6.24,3.36,1.7,6.9,3.02,10.63,3.61,7.89,1.24,15.67-.78,23.32-2.47,1.97-.43,3.93-.85,5.92-1.19.68-.12,1.37-.23,2.07-.31-2.69-.88-5.37-1.82-8.04-2.76Z"/>
      <path class="cls-1" d="M131.63,368.68c11.97-13.79,27.67-23.79,44.47-30.64.16-.07.28.21.12.28-4.54,1.93-8.9,4.28-13.1,6.85-7.53,4.62-14.48,10.13-20.78,16.31-2.6,2.55-5.08,5.24-7.44,8.02,5.4-3.22,11.62-4.89,17.63-6.53,3.43-.94,6.86-1.83,10.32-2.65,3.25-.77,6.51-1.56,9.64-2.74,12.57-4.76,19.38-17.54,23.66-29.58-7.49-.99-14.98.24-22.1,2.61-12.07,4.02-23.27,11.52-31.96,20.76-4.36,4.64-8.11,9.91-11.03,15.58-.96,1.87-1.84,3.81-2.63,5.81.98-1.43,2.07-2.78,3.2-4.08Z"/>
      <path d="M184.53,255.19c.37-2.52.77-5.04,1.19-7.56,1.72-4.13,4.49-7.73,8.7-9.65,5.46-2.49,12.03-2.26,17.89-2.5,5.99-.25,12.14-.37,17.96-2.01,5.21-1.47,9.87-4.28,13.96-7.78,4.7-4.03,8.64-8.87,12.62-13.59.26-.3.2-.66-.12-.89-4.81-3.57-11.36-4.85-17.22-5.36-6.02-.52-12.11-.02-17.96,1.49-11.51,2.96-22.06,9.89-29.16,19.45-1.68,2.26-3.09,4.73-4.24,7.31.02-.08.03-.16.05-.24,0-.04,0-.07,0-.11,2.14-6.72,5.18-12.95,9.32-18.69,4.49-6.22,9.64-11.87,14.66-17.65,5.05-5.81,9.73-12,13.27-18.86,3.47-6.72,5.81-13.96,7.09-21.41,1.56-9.09,1.68-18.42,4.09-27.35.15-.57-.58-1.03-1.01-.59-10.6,11.11-22.75,20.77-32.17,32.97-4.83,6.25-8.77,13.05-11.46,20.49-2.85,7.89-4.49,16.13-5.31,24.47-.45,4.59-.65,9.2-.73,13.81-.13,1.56-.27,3.12-.38,4.69-.15,2.13-.39,4.26-.45,6.4-.07,2.2.02,4.39-.13,6.59-.01.16-.03.32-.04.48-.7,3.67-1.37,7.34-2,11.02-.13.57-.25,1.15-.38,1.72-.02.12,0,.21.03.3-1,6.04-1.92,12.09-2.8,18.15-.17,1.16-.34,2.32-.52,3.48.01-.61,0-1.21.03-1.82.2-7.26.69-14.52.92-21.78.23-7.18.28-14.5-.57-21.64-.83-6.94-3.73-13.34-6.23-19.81-1.5-3.87-3.07-7.72-4.48-11.62-1.22-3.35-1.89-6.86-3.39-10.11-.24-.53-1.18-.41-1.28.17-.66,3.8-1.91,7.45-2.99,11.14-1.09,3.78-1.88,7.6-2.34,11.5-.45,3.81-.57,7.65-.26,11.47.3,3.8.96,7.61,1.52,11.39.58,3.87,1.79,7.54,2.82,11.29.99,3.62,1.66,7.32,2.66,10.94,1.85,6.67,4.43,13.12,6.35,19.78,1.87,6.46,2.95,13.03,2.59,19.7-1.25,3.69-2.79,7.27-4.75,10.68-5.14,8.98-12.79,16.15-20.15,23.28-3.85,3.73-7.65,7.5-11.12,11.53,2.48-4.43,4.97-8.85,7.25-13.39,5.14-10.18,8.96-20.77,10.39-32.13,1.23-9.8.81-19.74-.67-29.49.13-2.72.01-5.47-.15-8.18-.27-4.56-.68-9.11-1.06-13.66-.75-9.05-1.62-18.09-1.25-27.18.19-4.52.69-9.02,1.65-13.45.96-4.45,2.3-8.8,3.66-13.14,2.38-7.63,4.83-15.27,7.88-22.67.28-.69.59-1.37.88-2.06.84.4,1.75.7,2.68.66.82-.03,1.56-.2,2.23-.7.5-.37.91-.9,1.02-1.5.06,0,.13.03.19.03,4.56.53,8.91-1.29,12.58-3.86,6.87-4.79,12.36-12.25,13.84-20.6.82-4.64-.02-9.16-1.25-13.62-.1-.87-.23-1.73-.26-2.61-.05-1.33.04-2.66.22-3.98.35-2.54,1.09-4.99,2.06-7.36.23-.56-.47-.95-.87-.53-.41.42-.81.85-1.22,1.28.34-.79.78-1.53,1.34-2.24.36-.46-.11-1.01-.62-.87-1.49.39-2.56,1.28-3.6,2.3.09-.93.37-1.84.88-2.65.35-.54-.2-1.14-.77-.82-1.13.64-2.17,1.44-3.07,2.38-.04,0-.07.01-.11.03-.14-.9-.55-1.76-1.17-2.54-.21-.27-.75-.31-.87.09-.46,1.52-1.08,2.97-1.98,4.28-.45.65-.94,1.28-1.41,1.91-.44.59-.78,1.24-1.22,1.83-3.99,2.02-7.57,4.73-10.95,7.63-3.48,2.99-6.83,6.26-9.43,10.07-4.28,6.26-6.6,14.85-2.7,21.84.52.93,1.17,1.82,1.92,2.63.15.28.33.54.51.79-.85.53-1.19,1.81-.98,2.77.19.86.7,1.62,1.34,2.23-3.67,6.82-6.64,14.03-9.1,21.4-2.88,8.63-5.52,17.28-6.38,26.38-.87,9.25-.24,18.58.7,27.8.26,2.57.56,5.13.86,7.69-5.03-17.69-12.9-34.46-20.73-51.1-.43-.92-.86-1.84-1.29-2.76.07-.11.1-.24.05-.4-.13-.52-.22-1.04-.31-1.57-.03-2.43.67-4.89,1.67-7.16,1.75-3.99,4-7.72,6.2-11.47,2.07-3.54,4.01-7.2,5.04-11.19,1.11-4.34.86-8.9.09-13.27-.46-2.59-1.18-5.12-1.68-7.7-.46-2.38-.62-5.44,1.27-7.28.29-.28-.08-.72-.42-.61-4.53,1.44-8.18,5.33-10.6,9.27-2.83,4.62-4.36,9.99-5.47,15.24-1.8,8.48-2.2,17.39-.57,25.92-7.42-16.31-14.07-32.87-17.67-50.55.83.44,1.65.92,2.48,1.34,5.97,3.05,13.26,1.3,18.49-2.53,1.19-.87,2.28-1.86,3.19-3.02,1-1.28,1.61-2.74,2.41-4.14.84-1.47,2.11-2.43,3.34-3.56,1.11-1.02,1.91-2.2,2.41-3.63,1.02-2.89,1.52-6.33,1.47-9.47.79,1.67,1.69,3.28,2.89,4.71,4.53,5.41,13.17,5.45,17.61-.08,1.28-1.59,2.31-3.39,3.97-4.63,1.57-1.16,3.41-1.89,4.97-3.07,1.26-.95,2.41-2.27,2.79-3.84.38-1.59-.25-2.99-.89-4.41-.37-.8-.88-1.81-.69-2.72.2-.96,1.15-1.85,1.68-2.65,1.14-1.73,2.08-3.6,2.71-5.57.59-1.82.89-3.74.87-5.65.82,1.86,1.8,3.67,2.76,5.36,1.81,3.17,4.05,6.18,6.86,8.53,2.75,2.31,5.92,3.68,9.18,5.08,3.16,1.36,6.42,2.87,8.27,5.93.46.77,1.48.52,1.77-.23,3.4-8.86,3.5-19.36-.27-28.12-3.19-7.42-9.24-13.7-16.75-16.75-3.32-1.35-6.77-1.87-10.27-2.05,2.01-.3,4.02-.63,5.98-1.11,5.24-1.29,10.04-3.91,14.05-7.5,3.93-3.52,7.11-7.89,9.35-12.67,2.42-5.16,3.87-10.69,5.29-16.19,1.65-6.4,3.29-12.92,6.61-18.7.16-.28-.04-.75-.41-.71-8.4.94-16.65,2.86-24.57,5.85-3.99,1.51-7.88,3.31-11.63,5.33-3.19,1.72-6.32,3.63-8.92,6.19-2.2,2.17-4.12,4.97-4.37,8.07-1.54-1.35-3.12-2.63-4.37-4.29-1.49-1.97-2.62-4.04-4.67-5.52-1.81-1.31-3.96-2.11-6.05-2.85-2.25-.79-4.58-1.53-6.41-3.13-1.92-1.67-3.33-3.85-5.57-5.17-4-2.35-9.26-2.41-13.71-1.69-2.39.38-4.85,1.18-6.69,2.81-2.15,1.9-2.79,4.61-3.57,7.25-.99,3.37-1.89,6.81-2.6,10.29,0-.26,0-.51,0-.77-.08-2.84-.2-5.74-.97-8.49-1.31-4.67-4.52-9.11-9.82-8.98-1.63.04-3.15-.02-4.74-.4-1.65-.4-3.25-.95-4.91-1.31-3.35-.72-6.76-.87-10.17-.65-3.38.22-6.75.72-10.1,1.23-1.27.19-2.5.52-3.53,1.32-1.03.8-1.7,1.92-2.29,3.07-1.33,2.61-2.67,4.82-5.24,6.4-1.17.72-2.45,1.26-3.79,1.58-1.62.39-3.25.29-4.9.31-2.61.03-4.98.73-7,2.42-1.89,1.59-3.22,3.84-3.93,6.19-.8,2.7-.53,5.28-.09,8.02.27,1.65.41,3.25.18,4.91-.22,1.56-.64,3.08-1.04,4.6-.74,2.83-1.49,5.81-.66,8.71.7,2.45,2.46,4.38,4.62,5.66,1.06.63,2.22,1.06,3.41,1.35-2.53.48-5.04,1.32-7.26,2.5-3.41,1.81-5.74,4.68-6.72,8.42-.59,2.24-.77,4.55-1.23,6.81-.47,2.31-1.39,4.5-1.79,6.83-.35,1.99-.32,4.06.73,5.84.91,1.54,2.43,2.54,3.88,3.51,1.79,1.21,3.16,2.4,3.84,4.51.61,1.85.84,3.87,1.89,5.55.13.21.28.41.43.6-11.27-3.23-23.72-1.7-33.93,4.25-3.22,1.88-6.2,4.18-8.84,6.82-.74.74.02,1.9.99,1.69,4.3-.92,8.34,1.15,11.88,3.38,3.44,2.17,6.78,4.28,10.7,5.49,7.55,2.32,16.05,2.33,23.53-.26,3.94-1.37,7.8-3.21,10.66-6.29.08.05.15.1.23.15-1.91,1.99-3.19,4.51-4.1,7.16-1.44,4.21-2.42,8.74-2.77,13.17-.76,9.55,4.05,18.49,8.51,26.6,2.61,4.75,5.43,9.42,8.62,13.81.4.56,1.21.48,1.44-.19,1.42-4.09.96-8.73,3.7-12.32,2.24-2.93,5.59-4.64,8.56-6.7,3.22-2.23,5.96-4.95,7.68-8.52,1.8-3.76,2.63-7.98,2.58-12.14-.03-2.62-.41-5.17-1.1-7.69-.36-1.33-.72-2.69-1.18-4.02,2.11,1.77,4.6,3.12,7.38,3.32,1.42.1,2.84-.01,4.24.18,1.34,8.08,3.26,16.05,5.78,23.86,3.56,11.03,8.1,21.72,12.88,32.28,9.59,21.22,20.44,41.94,26.4,64.58,2.92,11.11,4.69,22.58,4.36,34.09-.33,11.54-2.99,22.69-7.71,33.22-7.88,17.58-20.1,33.98-24.7,52.84-.03-.05-.06-.11-.1-.16.19-3.08.41-6.16.73-9.23.91-8.94,2.04-17.85,3.05-26.78.94-8.3,1.69-16.63,1.89-24.95.14-1.27.15-2.55.05-3.83.02-7.06-.39-14.12-1.47-21.16-2.17-14.21-6.68-28.02-13.1-40.88.12-1.8.52-3.6.93-5.35.62-2.64,1.24-5.25,2.05-7.85,1.59-5.08,3.2-10.13,3.67-15.45.48-5.38-.04-10.9-1.47-16.11-1.44-5.27-4.01-10.1-6.43-14.96-2.93-5.86-5.57-11.93-7.51-18.19-.15-.5-.94-.55-1.07,0-2.49,11.16-4.87,22.24-4.19,33.74.64,10.89,3.35,21.53,7.2,31.71.11.28.22.56.33.84-4.83-7.78-10.38-15.1-16.58-21.81-8.52-9.22-18.34-17.48-29.14-23.98.22-.71.35-1.45.26-2.18-.1-.81-.33-1.54-.88-2.16-.41-.47-.97-.83-1.58-.89,0-.07.01-.13.02-.19.14-4.59-2.04-8.77-4.9-12.21-5.35-6.45-13.24-11.29-21.68-12.06-4.7-.43-9.13.79-13.47,2.39-.86.17-1.71.37-2.58.48-1.32.16-2.66.18-3.98.11-2.56-.14-5.07-.67-7.51-1.44-.57-.18-.9.55-.46.91.46.37.92.74,1.37,1.11-.81-.27-1.59-.65-2.34-1.14-.49-.32-.99.19-.82.69.51,1.45,1.49,2.45,2.59,3.4-.94-.02-1.87-.21-2.71-.65-.57-.3-1.12.29-.75.83.73,1.08,1.62,2.04,2.63,2.86.01.04.02.07.04.1-.89.22-1.71.7-2.43,1.38-.25.23-.24.78.16.86,1.55.33,3.05.83,4.43,1.62.69.39,1.35.83,2.02,1.24.63.39,1.3.68,1.93,1.06,2.35,3.8,5.34,7.14,8.53,10.27,3.27,3.22,6.82,6.28,10.83,8.55,6.6,3.74,15.35,5.33,21.99.86.88-.6,1.71-1.32,2.46-2.13.26-.18.51-.37.75-.57.6.8,1.9,1.04,2.84.75.96-.3,1.76-.98,2.33-1.81,9.18,5.71,17.69,12.36,25.33,20.1,9.75,9.88,18.01,21.2,24.49,33.48,3.56,6.75,6.55,13.8,8.96,21.04-.72-1.21-1.47-2.41-2.23-3.58-3.93-6.03-7.89-12.1-12.34-17.75-7.49-9.5-17.27-17.14-28.19-22.31-6.13-2.9-12.6-5.02-19.27-6.27-.58-.11-1.2.64-.64,1.1,9.56,7.81,15.44,18.92,23.13,28.38,3.97,4.88,8.43,9.33,13.76,12.71,6.21,3.94,13.21,6.49,19.27,10.66,5.41,3.72,9.74,9.58,11.36,16,.9,5.07,1.45,10.17,1.72,15.27-1.12-2.33-2.58-4.51-4.28-6.39-2.38-2.62-5.14-4.43-8.13-5.8-4.45-3.73-8.22-8.26-12.06-12.59-4.3-4.86-8.88-9.37-14.03-13.34-10.46-8.08-23.04-14.71-36.38-15.92-7.35-.67-14.85.47-21.48,3.78-.62.31-.49,1.15,0,1.49,5.8,4.03,10.85,9.05,15.01,14.76,3.9,5.34,6.58,11.5,10.81,16.61,2.18,2.64,4.85,4.71,7.77,6.47,3.07,1.85,6.28,3.51,9.66,4.72,7.21,2.58,14.86,2.18,22.33,1.19,4.29-.57,8.52-1.47,12.79-2.19,1.09-.18,2.19-.32,3.28-.41,1.01-.09,2.16-.35,3.17-.23.13.02.26.05.39.07.51.37,1.01.77,1.5,1.19,3.36,2.94,5.67,6.57,7.22,10.74.87,2.35,1.6,4.7,1.96,7.18.36,2.52.39,4.9.28,7.44,0,.09.05.16.11.2-.25,4.44-.62,8.87-1.08,13.3-1.03,9.93-2.48,19.82-3.37,29.76-.16,1.82-.32,3.65-.47,5.48-.51-2.36-.95-4.75-1.22-7.15-.73-6.33.11-12.63.15-18.97.04-6.06-.78-12.12-2.15-18.02-1.21-5.22-2.94-10.25-6.74-14.16-3.9-4.01-9.07-6.75-12.32-11.38-.35-.5-1.2-.49-1.37.18-1.7,6.82-2.9,13.68-2.87,20.74.03,6.48,1.22,12.82,3.54,18.87,4.15,10.82,11.13,20.2,16.83,30.2,2.07,3.64,3.97,7.37,5.59,11.22-.03,3.4.11,6.78.51,10.14-.09.67-.19,1.34-.28,2.01-.47,3.34,1.05,2.78,3.46,2.63,1.42-.09,1.2-.14,1.21-.15.5.54,1.32.05,2.03.08,1.96.08,3.71-.35,3.07-2.58-.39-1.36-.72-2.73-1-4.1.68-5.26,4.48-9.7,8.85-12.52,2.61-1.68,5.45-2.9,8.33-4.05,3.28-1.3,6.6-2.54,9.96-3.61,6.33-2.02,12.95-3.33,19.07-5.97,5.65-2.43,10.3-6.42,13.95-11.34,4.51-6.07,6.99-13.08,9.95-19.95.14-.33.06-.78-.36-.88-13.8-3.1-27.82,1.69-39.6,8.79-11.3,6.81-21.17,16.45-27.15,28.3-1.57,3.11-2.88,6.35-3.92,9.68.31-6.54,2.05-12.96,5.44-18.88,5.05-8.83,12.76-15.98,20.01-23,6.37-6.17,12.79-12.42,17.82-19.75,3.05-2.97,5.46-6.65,7.69-10.22,3.03-4.86,5.8-9.91,9.02-14.64,2.07-3.05,4.45-6.05,7.13-8.75.27.28.56.55.89.76.69.43,1.4.71,2.24.67.62-.03,1.26-.23,1.68-.67.05.04.09.09.14.13,3.48,2.99,8.1,3.91,12.59,3.85,8.38-.12,17.1-3.23,22.99-9.32,3.28-3.39,5.11-7.6,6.59-11.98.4-.77.78-1.56,1.24-2.31.7-1.13,1.52-2.19,2.41-3.17,1.71-1.91,3.7-3.53,5.83-4.94.5-.33.14-1.05-.42-.93-.58.12-1.15.25-1.73.37.72-.46,1.5-.83,2.36-1.11.55-.18.47-.9-.03-1.07-1.45-.51-2.84-.37-4.27-.11.6-.72,1.33-1.32,2.21-1.7.59-.26.47-1.05-.18-1.11-1.3-.11-2.61-.02-3.88.25-.04-.01-.07-.03-.1-.04.39-.83.53-1.77.45-2.76-.03-.34-.45-.68-.77-.42-1.23,1-2.56,1.85-4.04,2.44-.73.29-1.49.53-2.24.8-.7.25-1.34.59-2.04.84-4.44-.56-8.91-.32-13.35.19-4.56.53-9.17,1.37-13.45,3.07-7.05,2.8-13.78,8.61-14.46,16.59-.09,1.06-.05,2.16.12,3.25-.03.32-.03.63-.02.94-1-.04-2,.83-2.36,1.74-.47,1.2-.31,2.61.25,3.74.09.17.19.35.28.52-5.58,4.93-10.19,11.25-14.44,17.46,1.92-6.37,3.06-12.99,3.95-19.58.88-6.54,1.56-13.11,2.52-19.65ZM204.9,218.37c9.18-6.72,20.52-10.87,31.95-10.93,6.22-.03,13.4.9,18.73,4.4-6.91,8.56-14.86,17.44-25.94,20.18-6.19,1.53-12.52,1.15-18.83,1.06-6.02-.09-12.72-.13-18.26,2.53-.1.05-.2.11-.31.16.37-.48.74-.97,1.14-1.43,2.39-2.74,5.01-5.2,8.08-7.16,7.11-4.54,15.66-6.64,23.94-7.72.08-.01.09-.14,0-.13-8.63.79-17.2,2.42-24.91,6.56-3.15,1.69-6.21,3.75-8.75,6.3,3.56-5.36,8.09-10.11,13.15-13.81ZM193.2,186.45c2.37-7.55,5.69-14.86,10.25-21.35,4.33-6.16,9.48-11.66,14.83-16.93,5.58-5.51,11.3-10.86,16.68-16.56-1.59,7.27-2.15,14.7-3.44,22.02-1.35,7.67-3.91,15.03-7.48,21.95-3.57,6.93-8.31,12.93-13.4,18.79-5.02,5.78-10.41,11.33-14.84,17.6-.18.26-.36.52-.54.78,2.16-4.79,4.47-9.51,7-14.11,2.81-5.11,5.83-10.12,8.94-15.05,3.18-5.04,6.5-9.98,9-15.4,2.69-5.83,4.47-11.95,5.44-18.29.03-.22-.3-.32-.34-.09-1.09,5.83-3.07,11.51-5.76,16.79-2.74,5.37-6.49,9.94-10.08,14.74-7.09,9.48-12.8,19.92-17.55,30.75-1.31,2.99-2.52,6.04-3.43,9.17.16-4.66.23-9.33.23-14,.96-7.05,2.36-14.02,4.48-20.81ZM171.69,158.87s0,0,0-.01c0,0,0,0,0,.01h0ZM167.74,155.15c-.91-1.67-1.49-3.51-1.81-5.38-.66-3.8-.16-7.87,1.51-11.34.04-.09-.09-.18-.15-.09-2.36,3.59-3.37,7.88-2.78,12.14.27,1.97.87,3.88,1.75,5.66-.38-.52-.76-1.05-1.1-1.62-1.79-2.98-2.53-6.63-2.28-10.08.59-8.1,5.85-14.71,11.75-19.86,2.05-1.79,4.17-3.52,6.41-5.07,1.91-.74,3.64-1.91,5.32-3.04.96-.65,1.92-1.32,2.81-2.05.63-.52,1.27-1.1,1.44-1.93.04-.21-.28-.31-.36-.11-.35.91-1.4,1.31-2.17,1.8-.19.12-.39.25-.58.37.12-.1.24-.18.36-.29.65-.62,1.22-1.29,1.74-2.02.75-1.06,1.36-2.21,1.63-3.46.43.8.4,1.82,0,2.68-.01.03-.01.05-.02.08-.33.69-.6,1.43-.95,2.07-.74,1.36-1.62,2.64-2.61,3.84-2.21,2.67-4.9,4.88-7.63,6.99-.04.03,0,.09.04.06,3.06-1.99,6.18-3.9,8.81-6.46,1.14-1.11,2.17-2.34,2.99-3.7.61-1.02,1.27-2.17,1.3-3.37.54-.57,1.11-1.09,1.71-1.58-.22.88-.35,1.78-.31,2.72,0,.13.06.22.13.28-.59,1.03-1.03,2.13-1.47,3.24-1.15,2.9-1.9,5.92-2.96,8.84-.08.23.26.39.35.16,1.04-2.68,2.51-5.14,3.84-7.68.64-1.22,1.26-2.45,2.01-3.61.19-.29.39-.58.58-.87-.11.37-.21.74-.28,1.12-.11.55.58.77.92.42.35-.36.69-.73,1.03-1.09-.61,1.81-1.12,3.67-1.42,5.56-.18,1.15-.33,2.44-.31,3.71-.92-1.97-1.75-3.98-1.26-6.17.04-.17-.21-.2-.26-.04-.86,2.93-.02,5.99,1.22,8.68.7,1.51,1.37,2.95,1.64,4.6.26,1.56.14,3.13.33,4.68.01.09.14.12.18.03.04-.09.06-.18.1-.27.03.92.02,1.84-.08,2.76-.38,3.77-1.72,7.36-3.67,10.59-1.99,3.3-4.61,6.26-7.57,8.71-3.24,2.69-7.13,5-11.4,5.42-1.26.13-2.54.02-3.79-.25,1.01-.11,2.02-.39,2.96-.73,3.02-1.06,5.85-2.68,8.32-4.7,4.94-4.03,8.35-9.94,10.66-15.79.04-.1-.1-.16-.15-.07-2.41,5.46-6.01,10.22-10.71,13.91-3.41,2.68-7.44,4.98-11.77,5.32-.03-.13-.08-.25-.13-.38-.12-.29-.23-.61-.32-.91-.22-.68-.3-1.43-.41-2.13-.23-1.47-.26-2.96-.08-4.44.03-.26-.38-.43-.47-.14-.55,1.75-.9,3.65-.8,5.48.02.45.07.91.14,1.36,0,0,0,.01,0,.02-.74-.73-1.38-1.55-1.93-2.57ZM186.77,59.27c3.65,1.39,6.97,3.62,9.74,6.35,6.01,5.93,9.21,14.11,9.55,22.49.18,4.52-.5,8.97-1.7,13.31-4.09-4.6-11.02-5.5-15.81-9.27-2.89-2.28-5.09-5.27-6.97-8.42-1.95-3.27-3.26-7-5.45-10.11-.13-.18-.3-.25-.47-.24-.92-2.1-2.49-3.73-3.16-5.95-.68-2.25-1.46-4.36-2.88-6.27-.25-.33-.51-.65-.78-.95,1.74,1.05,3.49,2.09,5.17,3.23.82,1.02,1.69,1.99,2.5,3.02,1.29,1.64,2.42,3.42,3.53,5.19,2.17,3.48,3.92,7.26,5.65,10.97.08.16.36.05.29-.12-1.51-3.95-3.06-7.83-4.95-11.62-.7-1.4-1.5-2.74-2.39-4.03,1.24.97,2.45,1.98,3.62,3.03,4.94,4.43,9.54,9.48,13.15,15.06.08.12.26.01.19-.11-3.54-5.79-7.51-11.17-12.35-15.94-2.4-2.36-4.92-4.59-7.62-6.61-1.88-1.42-3.87-2.87-5.95-4.08,1.67-.25,3.33-.51,4.99-.77.52-.08,1.05-.16,1.58-.23,3.59.25,7.18.8,10.53,2.08ZM175.11,18.84c2.5-2.51,5.56-4.35,8.64-6.06,6.96-3.88,14.41-6.93,22.09-9.07,4.13-1.15,8.34-2.03,12.59-2.63-5,9.7-6.45,20.65-10.6,30.68-4.01,9.68-11.6,18.21-21.99,21-3.44.93-7.01,1.34-10.54,1.84-2.81.4-5.62.8-8.42,1.25,1.01-.82,1.94-1.75,2.82-2.73,1.22-1.36,2.42-2.78,3.3-4.38.07-.04.14-.1.17-.19,1.09-2.78,3.48-5.23,5.68-7.17.9-.8,1.84-1.55,2.79-2.29.12-.04.24-.09.37-.12,1.22-.31,2.49-.37,3.74-.39,2.98-.05,5.95.48,8.93.14.16-.02.17-.28,0-.26-3.26.24-6.34-.9-9.56-1.12-.4-.03-.81-.03-1.22-.01.94-.74,1.87-1.49,2.76-2.28,5.37-4.79,9.99-10.37,13.97-16.36.09-.14-.13-.27-.23-.13-4.37,6.34-9.89,11.84-16.1,16.38-.3.22-.62.44-.93.65.42-.74.81-1.5,1.13-2.3,1-2.49,1.59-5.1,2.03-7.74.02-.14-.18-.2-.21-.06-.54,2.56-1.58,4.97-2.9,7.22-.64,1.09-1.28,2.18-1.99,3.22-.41.6-.84,1.22-1.22,1.86-1.34.94-2.65,1.92-3.86,3.02-.64.59-1.2,1.19-1.7,1.81.09-1.04.13-2.08.17-3.11.11-2.52.15-5.12-.53-7.57-.58-2.09-1.74-3.81-3.25-5.32.59-3.01,1.88-5.56,4.08-7.78ZM115.74,29.7c.93-4.63,1.51-9.33,2.74-13.9.69-2.56,1.41-5.31,3.18-7.36,1.45-1.68,3.47-2.74,5.58-3.34,2.15-.62,4.39-.77,6.62-.8,1.78-.02,3.59.09,5.32.53-.34.66-.39,1.49-.5,2.2-.12.8-.22,1.6-.36,2.39-.29,1.64-.62,3.28-1.04,4.9-.86,3.3-2.02,6.72-3.65,9.72-.13.24.23.45.37.21.94-1.59,1.91-3.12,2.71-4.79.74-1.55,1.4-3.14,1.98-4.76.6-1.68,1.1-3.39,1.46-5.14.26-1.25.74-2.92.51-4.28.03.01.05.01.08.02.5.2.95.44,1.38.71,0,.06,0,.13.02.19.15.44.08,1.2.06,1.74-.03.77-.06,1.54-.12,2.31-.11,1.56-.31,3.13-.69,4.65-.03.13.17.23.23.1.72-1.68,1.33-3.37,1.77-5.15.21-.84.32-1.71.4-2.56.94.85,1.78,1.82,2.71,2.75,1.54,1.55,3.39,2.64,5.38,3.51,1.94.84,3.98,1.46,5.87,2.4,2.14,1.06,3.67,2.62,5.16,4.46,1.48,1.83,2.92,3.51,4.73,5.03.74.63,1.5,1.25,2.21,1.93.05.15.16.24.31.29.8.79,1.52,1.66,2.05,2.67,1.14,2.18,1.34,4.69,1.32,7.12-1.04-.08-2.26.27-3.25.51-1.01.24-2,.54-2.97.88-1.99.69-3.89,1.61-5.74,2.62-.21.11-.06.48.16.39,1.92-.75,3.92-1.28,5.93-1.71,1.01-.22,2.04-.39,3.07-.54.89-.13,1.89-.15,2.78-.37-.01.58-.03,1.15-.06,1.73-.9-.08-2.09.22-2.62.3-1.98.29-3.94.76-5.86,1.35-3.71,1.14-7.2,2.92-10.53,4.89-.19.12-.02.41.18.3,2.98-1.63,6.1-2.7,9.37-3.59,1.55-.42,3.12-.76,4.71-1.03.84-.14,1.68-.25,2.52-.35.4-.05.8-.09,1.2-.12.23-.02.46-.04.69-.06.09.01.16.02.22.02-.1.95-.23,1.89-.47,2.79-.64,2.51-2.2,4.44-3.89,6.33-1.73,1.93-3.6,3.8-6.08,4.73-2.77,1.04-5.88,1.23-8.8,1.41-3.07.18-6.14.02-9.2-.24-4.73-.4-11.9-.85-14.46,4.21-.4.79.52,1.42,1.17.9,1.94-1.54,4.13-2.65,6.59-3.03,3.04-.47,6.14-.09,9.2-.04,2.83.05,5.67-.09,8.49-.36,1.27-.12,2.55-.25,3.82-.47,1.31.09,2.62.07,3.92.28,1.97.32,3.47,1.41,4.62,3.02.84,1.18,1.43,2.44,1.91,3.76-.06-.05-.12-.1-.18-.14-1.48-1.07-3.27-1.56-5.06-1.81-4.08-.55-8.13-.22-12.17.49-.22.04-.13.37.09.34,3.66-.53,7.45-.21,11.04.65,1.54.37,3.13.8,4.49,1.65,1.16.72,1.96,1.91,3.08,2.65.04.03.09.04.13.04.45.91.98,1.77,1.58,2.67,2.1,3.21,2.48,7.18,1.56,10.85-.47,1.88-1.23,3.66-2.2,5.34-.81,1.4-2.09,2.71-2.15,4.42-.05,1.43.77,2.67,1.35,3.91.88,1.91.53,3.68-.91,5.22-.63.68-1.38,1.21-2.16,1.69,0-.09.01-.18-.01-.28-.37-1.51-1.39-2.86-2.52-3.91-1.22-1.14-2.67-2.03-4.07-2.93-.23-.15-.41.2-.21.35,1.28.95,2.5,1.95,3.51,3.19.9,1.1,1.45,2.34,1.74,3.73.06.27.21.43.41.51-.42.23-.83.46-1.24.7-.05.03-.1.07-.15.1-.06-.75-.42-1.49-.74-2.15-.44-.9-.96-1.75-1.54-2.56-1.19-1.67-2.59-3.15-4.18-4.44-3.55-2.89-7.77-4.74-11.93-6.56-.16-.07-.3.15-.14.24,3.79,2.07,7.54,4.33,10.72,7.26,1.38,1.27,2.68,2.66,3.76,4.2.55.78,1.04,1.59,1.47,2.44.39.78.68,1.83,1.3,2.45-.89.67-1.69,1.43-2.45,2.28-1.16,1.3-2.23,2.73-3.71,3.69-1.32.86-2.78,1.43-4.34,1.66-3.29.49-6.63-.55-8.96-2.94-2.6-2.67-3.8-6.33-5.34-9.64-1.6-3.43-3.67-6.49-6.62-8.88.49-.82,1.16-1.51,1.72-2.28,2.23-3.02,1.57-7.04-1.27-9.44-.34-.28-.7-.53-1.06-.77-1.16-1.54-2.67-2.79-4.48-3.46.15,0,.3,0,.46,0,3.37.14,7.02,1.04,9.45,3.5.13.13.3-.06.2-.2-2.19-2.79-5.32-4.37-8.76-5.04-.47-.09-.94-.17-1.42-.23,1.83-.19,3.65-.24,5.56.04,6.31.93,12.44,4.29,16.36,9.36.13.17.42.01.29-.17-3.48-5.03-8.43-8.69-14.3-10.5-2.1-.65-4.3-1.03-6.51-1.17,1.09-.32,2.18-.62,3.29-.85,5.83-1.21,12.35.58,16.84,4.45.15.13.36-.08.22-.22-4-3.71-9.09-5.99-14.57-6.12-3.01-.08-6.01.45-8.97.96-1.56.27-3.1.53-4.68.55-.8.01-1.58-.04-2.37-.19,0,0-.02,0-.03,0,.17-.1.36-.18.52-.29.68-.46,1.33-.98,1.96-1.51,1.21-1.01,2.31-2.16,3.3-3.39.2-.25-.12-.59-.36-.36-1.11,1.03-2.32,1.89-3.66,2.62-1.22.66-2.53,1.17-3.83,1.67-.01-.09-.03-.17-.05-.26.22-.02.43-.13.58-.32.21-.27.28-.65.45-.96.66-1.19,1.66-2.14,2.72-2.97.74-.58,1.5-1.16,2.17-1.83.13-.11.27-.2.41-.31,2.05-1.69,3.92-3.63,5.67-5.63,3.48-3.97,7.18-8.3,12.09-10.54.18-.08.05-.39-.14-.32-4.94,1.92-8.69,5.35-12.6,8.82-1.27,1.13-2.53,2.28-3.82,3.39,1.93-2.97,3.38-6.32,5.22-9.34,3.44-5.64,8.19-11.99,15.09-13.33.1-.02.08-.19-.03-.19-5.65.4-10.09,4.25-13.69,8.3-2.11,2.37-3.83,4.96-5.38,7.72-1.32,2.34-2.58,4.75-4.29,6.83-1.01.97-2.04,1.93-2.99,2.95-.17.13-.34.26-.52.37-.5.33-1.03.62-1.58.86.39-.48.75-1,1.04-1.55.77-1.46,1.23-3.06,1.31-4.71,0-.18-.27-.22-.32-.04-.36,1.49-1.02,2.91-1.95,4.12-.44.58-.94,1.12-1.47,1.62-.28.27-.57.54-.88.78-.22.17-.45.31-.64.49-.26-.15-.53-.3-.81-.44,0,0,0-.01,0-.02.16-.36.3-.72.43-1.09.29-.8.6-1.6.9-2.4.3-.79.67-1.6.96-2.43.12-.07.25-.14.37-.22.95-.6,1.96-1.3,2.75-2.15.1-.02.19-.05.29-.13,1.64-1.23,2.95-3.28,3.64-5.2.31-.87.49-1.82.43-2.74-.08-1.16-.6-2.08-.96-3.16-.38-1.15.11-1.95.46-3.02.29-.87.37-1.8.26-2.71-.21-1.73-1.08-3.38-2.48-4.42-1.29-.97-2.95-1.32-4.55-1.12.13-.81.25-1.62.35-2.43ZM121.63,90.47c-.78-.99-1.01-2.27-1.35-3.45-.33-1.18-.64-2.37-1.02-3.54-.22-.68-.51-1.34-.84-1.98.9.63,1.79,1.29,2.63,1.98,1.96,1.59,3.93,3.48,5.26,5.64.19.3.65.04.48-.28-.62-1.18-1.21-2.39-1.94-3.51-.73-1.13-1.55-2.2-2.45-3.21-.53-.59-1.09-1.13-1.67-1.64.11.05.22.1.33.15,1.7.77,3.32,1.58,4.6,2.98.15.17.46-.06.32-.25-1.11-1.49-2.48-2.81-3.97-3.91-.43-.32-.87-.62-1.32-.91.1.01.2.02.3.03-.06.05-.06.15.04.15,3.2-.16,6.79-.06,9.68,1.48,1.05.82,1.98,1.78,2.91,2.73.99,1.74,1.16,3.87,0,5.7-.42.67-.88,1.31-1.22,2.03-.37.78-.5,1.62-.75,2.44-.51,1.72-1.77,3.05-3.67,2.99-.7-.02-1.34-.37-2.04-.36-.72,0-1.31.49-2,.63-.76.15-1.43-.06-2.02-.45-.02-.06-.04-.11-.08-.15-.36-.32-.72-.61-1.06-.91-.23-.28-.44-.58-.62-.87-.5-.8-.96-1.64-1.18-2.57-.21-.88-.13-1.83-.26-2.73-.15-1.11-.5-2.25-.94-3.35,0-.09,0-.18,0-.27.56,1.01,1.14,2,1.71,3,.54.94,1.07,1.93,1.88,2.67.16.15.37-.07.24-.24ZM114.99,74.14c-1.02,1.34-2.71,2.23-4.36,2.47-1.45.21-2.94-.03-4.22-.67-.03-.02-.07-.04-.1-.05-.75-.38-1.41-.9-1.95-1.54-.05-.1-.12-.19-.2-.26-.54-.71-.92-1.55-1.08-2.51-.27-1.66.34-3.56,1.24-4.95,1.01-1.57,2.65-2.63,4.54-2.71,1.08-.04,2.17.28,3.16.71,1.02.44,2.09.97,2.79,1.85.71.9.99,1.98,1.14,3.09.02.55,0,1.1-.04,1.64-.08,1.04-.27,2.06-.91,2.91ZM115.49,76.33s-.06-.03-.1-.03c0,0,0,0,0,0,.03-.03.05-.06.08-.08,0,.04,0,.08,0,.12ZM115.1,78.06s0,.01,0,.01c0,0,0-.01,0-.02,0,0,0,0,.01,0ZM111.64,79.78s-.01.05-.02.08c-.02-.08-.04-.16-.06-.24.03.05.05.11.08.16ZM108.65,79.32s0,0,0,0c.03-.06.06-.13.09-.19.02.1.05.19.07.29.15.79.34,1.58.36,2.38.03.97-.13,1.92-.38,2.85.22-1.77.18-3.57-.14-5.32ZM106.9,78.34c-.03.05-.05.1-.08.15,0-.04,0-.09,0-.13.01,0,.02,0,.03,0,.02,0,.02-.01.04-.02ZM96.24,80.82c1.33-.32,2.61-.73,3.82-1.4.31-.17.62-.37.91-.57-.16.27-.31.53-.46.79-.75,1.28-1.43,2.61-1.98,3.98-1.08,2.68-1.98,5.51-3.55,7.95-.13.2.17.43.33.26,1.96-2.1,3.74-4.37,5.21-6.83.67-1.12,1.29-2.26,1.93-3.4-.11.88-.24,1.76-.45,2.65-.6,2.52-1.45,5.14-3.04,7.21-.26.34.28.69.56.43,2.09-1.87,3.76-3.88,4.77-6.53.27-.73.46-1.51.59-2.3.35-.56.7-1.1,1.02-1.67.14-.25.27-.54.4-.84,0,.33,0,.66.03,1,.05.74.07,1.48.16,2.22.07.58.17,1.16.26,1.74-.32,2.04-.88,4.02-1.98,5.87-.94,1.6-2.25,2.97-3.83,3.94-1.89,1.16-4.11,1.7-6.21,2.36-.87.28-2.01.88-2.92.93-.7.04-.75-.63-.96-1.19-.2-.53-.39-1.07-.57-1.61-.66-2.04-1.05-4.11-.97-6.26.14-3.78,1.83-7.18,5.32-8.85.55-.27,1.19-.53,1.85-.81-.14.07-.28.15-.43.21-.41.17-.26.79.19.68ZM101.99,67.18c.06.01.12.03.18.03-.02.06-.04.12-.06.18-.04-.07-.08-.14-.12-.22ZM110.72,60.23c.59-.55,1.2-1.08,1.83-1.59.61-.49,1.3-.88,1.98-1.26-.35.65-.76,1.27-1.13,1.89-.4.67-.79,1.34-1.2,2-.2.33-.4.66-.58,1.01-.02.03-.04.06-.05.1-.27-.1-.54-.18-.82-.24.01-.63-.06-1.27-.03-1.91ZM114.93,33.18c1.16-.22,2.39-.06,3.43.48,1.49.77,2.44,2.37,2.58,4.02.06.75-.05,1.5-.32,2.2-.32.81-.79,1.55-.86,2.44-.16,2.02,1.37,3.65.87,5.73-.29,1.19-.92,2.15-1.59,3.1-.09.06-.17.14-.21.25-.03.07-.07.12-.1.19-.32.44-.63.89-.91,1.37-1.28,1.3-3.21,1.8-4.84,2.71-.36.2-.7.43-1.03.67.3-.76.58-1.52.75-2.32.22-1.01.36-2.04.52-3.05.02-.15-.2-.23-.24-.07-.16.71-.34,1.41-.55,2.11.06-.58.07-1.14.02-1.67-.19-1.98-.83-3.9-.66-5.9.18-2.17.95-4.2,2.33-5.88.09-.11-.06-.28-.17-.17-2.78,3.02-4.38,6.78-3.96,10.92.11,1.08.33,2.08.57,3.13.3,1.31.07,2.63-.37,3.89-.26.75-.86,1.75-1.22,2.75-.1.19-.2.38-.3.57-.03.06-.05.13-.08.2-.02-.06-.06-.12-.08-.19-.22-.76-.27-1.58-.31-2.37-.09-1.87.15-3.72.75-5.5.06-.18-.22-.25-.28-.08-.31.81-.58,1.64-.82,2.48-.09-.48-.25-.95-.52-1.44-.76-1.36-2.12-2.38-3.04-3.64-.93-2.19-1.42-4.5-.95-7.01.57-2.96,2.52-6.34,5.62-7.17.69-.18,1.4-.24,2.05-.53.85-.37,1.44-1.1,2.22-1.58.31-.19.64-.33.99-.45.25,0,.48-.05.68-.18ZM44.63,47.73c0-.19.03-.38.05-.57.11.05.24.08.39.06,1.96-.23,3.89-.66,5.84-.91,1.95-.25,3.91-.28,5.86-.14.24.02.23-.34,0-.37-1.98-.25-3.98-.45-5.98-.58-1.96-.13-3.93-.17-5.87.21.09-.45.19-.9.3-1.35.59.05,1.31-.2,1.81-.28.75-.13,1.51-.23,2.27-.3,1.6-.14,3.19-.19,4.78-.07.36.03.34-.51,0-.56-1.47-.19-2.95-.39-4.43-.5-1.31-.09-2.63-.19-3.95-.15.27-.99.54-1.98.73-2.98.24-1.24.4-2.5.35-3.76-.07-1.79-.52-3.53-.68-5.31-.09-1-.05-2.04.12-3.06,1.54-.14,3.06-.43,4.61-.55,1.58-.12,3.16-.18,4.74-.14.11,0,.14-.18.03-.2-1.55-.29-3.11-.55-4.67-.73-1.4-.16-2.82-.35-4.23-.34.11-.33.23-.66.37-.98.15.1.33.17.56.17,1.45,0,2.95.03,4.39-.14,1.26-.15,2.51-.29,3.78-.3,2.73-.02,5.49.26,8.01,1.38.16.07.3-.16.14-.24-2.39-1.16-4.94-1.81-7.57-2.17-1.35-.18-2.71-.35-4.07-.51-1.37-.17-2.77-.15-4.16-.14,1.06-1.54,2.52-2.78,4.35-3.4,2.73-.93,5.74-.19,8.53-.9,2.39-.61,4.61-1.9,6.37-3.64,1.79-1.78,2.7-3.92,3.92-6.08.21-.37.44-.7.69-1.01.07.1.17.19.29.24,1.45.62,2.93,1.12,4.36,1.81,1.42.68,2.77,1.43,4.07,2.31.33.22.62-.3.31-.53-1.25-.93-2.52-1.87-3.81-2.75-1.2-.81-2.42-1.68-3.71-2.34.24-.13.49-.25.78-.34.2-.06.42-.1.63-.15.77.53,1.67.8,2.52,1.18.92.41,1.86.77,2.78,1.2,1.89.89,3.67,1.99,5.35,3.24,3.51,2.61,6.48,5.81,9.07,9.31.24.33.79.02.56-.32-2.56-3.72-5.27-7.48-8.73-10.43-1.64-1.4-3.46-2.63-5.4-3.57-.89-.43-1.86-.85-2.83-1.08.27-.02.54-.05.81-.07,6.53-.66,13.11-1,19.5.77,1.54.43,3.09.81,4.7.88,1.58.07,3.19,0,4.66.67,2.33,1.05,3.55,3.52,4.26,5.85.84,2.73,1.02,5.62,1.15,8.46.17,3.57.11,7.18-.21,10.74-.02.22.04.39.13.55-.14.08-.3.13-.43.22-1.05.68-1.69,1.61-2.98,1.88-3.6.76-6.49,2.77-7.78,6.33-1.4,3.86.08,8.68,2.78,11.76.11.2.21.4.32.59.48.87.96,1.72,1.3,2.66.42,1.16.43,2.39.6,3.6.02.13.03.27.05.41-.34-.44-.64-.91-.9-1.4-.88-1.69-1.55-3.53-1.73-5.43-.02-.25-.39-.26-.39,0,0,2.09.16,4.16.79,6.15-.39-.36-.78-.69-1.1-1.02-1.03-1.08-1.98-2.21-2.79-3.47-1.72-2.7-2.56-5.63-3.2-8.74-.67-3.27-1.14-6.48-2.6-9.52-1.38-2.88-3.37-5.39-5.44-7.8-.15-.17-.38.07-.25.25,2.14,2.74,4.13,5.72,5.31,9.01,1.23,3.45.78,7.02,1.42,10.56.52,2.83,1.69,5.55,3.32,7.92.8,1.17,1.7,2.31,2.74,3.28.31.29.67.63,1.06.95.08.11.17.2.26.31-.75-.37-1.48-.76-2.14-1.36-1.2-1.08-2.16-2.39-2.95-3.8-1.84-3.3-2.63-7.07-4.1-10.53-2.55-6.01-7.26-10.63-12.9-13.79-3.2-1.79-6.6-2.79-10.1-3.79-.11-.03-.15.13-.05.17,3.18,1.04,6.19,2.71,9.05,4.44,2.86,1.73,5.53,3.84,7.78,6.32,2.36,2.6,4.1,5.57,5.3,8.86,1.24,3.4,2.12,7,4.05,10.1.68,1.09,1.67,2.4,2.84,3.48.08.11.17.21.25.32-1.36-.86-2.54-2.04-3.63-3.39-2.27-2.82-4.2-5.87-6.37-8.76-1.96-2.6-3.89-5.21-6.24-7.47-2.24-2.15-4.79-3.85-7.62-5.11-.18-.08-.34.18-.15.27,6.68,3.04,10.48,9.72,14.26,15.63,1.89,2.96,3.77,6.04,6.19,8.61.64.68,1.36,1.3,2.13,1.83.17.32.36.63.57.92-.71-.38-1.42-.77-2.11-1.18-.28-.16-.55-.34-.83-.51-2.11-1.9-4.15-3.89-6.51-5.5-2.94-2.01-6.21-3.51-9.61-4.58-3.39-1.06-6.87-1.79-10.44-1.94-3.65-.15-7.12.45-10.63,1.39-.24.06-.14.42.1.37,6.72-1.56,14.56-.95,20.96,1.62,3.25,1.31,6.35,3.17,9.05,5.4.16.13.31.27.47.41-.09-.02-.17-.06-.26-.08-.12-.02-.23-.05-.35-.07-4.04-2.74-9.51-3.35-14.25-3.17-6.49.25-13.04,1.69-19.55,1.26-5.55-.36-11.49-3.65-11.18-9.92ZM49.33,120.71c-3.75,1.5-7.61,2.63-11.64,3.01-4.01.38-7.8.12-11.66-1.09-4.03-1.26-7.41-3.59-10.97-5.79-2.86-1.77-6.07-3.26-9.42-3.39,8.74-7.8,20.57-11.78,32.27-10.77,2.89.25,5.74.85,8.53,1.63.79.57,1.65,1.05,2.51,1.54,1.84,1.05,3.08,2.45,4.17,4.25.34.57.68,1.15,1.02,1.72-1.87-.54-3.82-.85-5.74-1.06.13-.24,0-.55-.27-.62-.01,0-.33-.05-.24-.03.09.02-.27-.07-.34-.08-.15-.01-.33,0-.5.03-.73-.39-1.5-.72-2.32-1.05-2-.8-4.06-1.42-6.15-1.94-4.02-1-8.12-1.62-12.25-1.88-.23-.01-.28.37-.05.4,3.98.6,7.9,1.58,11.69,2.94,1.6.58,3.17,1.24,4.73,1.91-1.64-.01-3.28.02-4.93.1-7.03.33-14.02,1.07-21,1.88-.17.02-.18.29,0,.28,6.84-.31,13.71-.67,20.56-.29,1.76.1,3.52.23,5.29.39-.02.02-.04.03-.06.05-1.6,1.51-3.2,3.11-5.27,3.96-.24.1-.15.49.11.41,2.07-.65,3.98-1.71,5.86-2.78.75-.43,1.5-.88,2.24-1.33.68.08,1.37.14,2.05.22,2.72.33,5.47.77,8.22.91.25.33.51.66.8.97.52.57,1.11,1.08,1.71,1.57-3.03,1.18-5.91,2.71-8.93,3.92ZM58.97,114.03c-.39-.38-.73-.78-1.06-1.2.57-.16,1.13-.38,1.56-.53,1.18-.41,2.31-.94,3.4-1.56,2.09-1.2,3.96-2.98,5.63-4.7.15-.15-.07-.36-.23-.23-1.84,1.64-3.91,2.67-6.16,3.63-1.04.44-2.13.81-3.21,1.15-.58.18-1.16.33-1.75.46-.14.03-.27.07-.4.1-.33-.51-.64-1.03-.95-1.56-.03-.05-.06-.1-.09-.15,1.07.06,2.32-.34,3.14-.73,1.66-.79,3.23-1.74,4.77-2.73,3.13-2.02,6.02-4.29,8.94-6.59.14-.11-.05-.36-.19-.25-2.8,2-5.79,3.78-8.73,5.55-1.43.86-2.89,1.84-4.48,2.38-.78.26-1.64.47-2.46.56-.7.08-1.36-.07-2.01.17-.36-.54-.75-1.07-1.18-1.55.07-.01.14-.02.22-.03.88-.2,1.75-.48,2.59-.81,1.65-.64,3.18-1.51,4.67-2.46.14-.09.02-.31-.13-.23-1.52.79-3.17,1.27-4.85,1.55-.8.14-1.61.21-2.42.24-.41.01-.81.04-1.22.06-.29,0-.59,0-.88.03-1.19-.71-2.49-1.21-3.69-1.94-3.33-2.01-2.66-6.41-4.88-9.25-1.64-2.09-4.65-3.14-6.19-5.26.56-.19,1.07-.52,1.63-.79.74-.35,1.49-.66,2.25-.95,1.63-.63,3.33-1.12,5.03-1.51,3.42-.77,7.11-.87,10.6-.65.26.02.25-.36,0-.39-3.72-.46-7.38-.64-11.12-.3-1.77.16-3.49.49-5.18,1.03-.83.27-1.64.61-2.43.98-.55.26-1.11.51-1.58.87-.05-.21-.09-.43-.12-.66-.05-.47-.05-.94-.01-1.41.41.1.91-.02,1.15-.4.37-.57.89-.83,1.48-1.17.79-.46,1.66-.79,2.53-1.09,1.74-.6,3.53-1.01,5.36-1.17.14-.01.14-.22,0-.22-2.07,0-4.14.18-6.17.59-1.01.2-2.03.43-3.03.69-.31.08-.62.2-.89.36.19-.73.42-1.44.63-2.14.62-2.06,1.07-4.1,1.37-6.23.32-2.25.57-4.58,1.58-6.64.87-1.78,2.25-3.24,3.89-4.33,3.12-2.09,6.74-2.76,10.24-3.87,1.15.1,2.31.13,3.43.1,3.9-.09,7.78-.65,11.66-.94,3.76-.28,7.54-.13,11.24.61,3.35.67,6.36,2.03,9.32,3.68.28.25.58.48.88.7-.98-.16-1.96-.3-2.95-.46-.24-.04-.36.31-.11.38,2.56.71,5.16,1.77,7.48,3.07.63.35,1.25.72,1.87,1.1-.38-.07-.76-.13-1.14-.18-.12-.02-.24-.02-.36-.03-1.8-.44-3.69-.62-5.37-.67-4.79-.15-9.43,1.25-14.06,2.27-.2.04-.16.38.05.36,4.47-.45,8.94-.48,13.42-.12,1.73.14,3.47.41,5.16.84-2.53.18-4.97.8-7.31,1.79-4.96,2.11-9.39,6.17-15.09,5.96-.26,0-.32.41-.06.46,5.03,1,9.86-1.21,14.34-3.26,2.45-1.12,4.92-2.03,7.61-2.33,1.27-.14,2.56-.2,3.84-.18.73.01,1.46.08,2.19.15-.01,0-.02.01-.03.02-.03,0-.06,0-.1,0-.9.03-1.79.28-2.65.56-1.94.63-3.78,1.6-5.52,2.64-1.74,1.04-3.22,2.41-5.05,3.31-2.02.99-4.32,1.55-6.57,1.64-.16,0-.16.24,0,.25,3.96.09,7.77-.54,11.51-1.88,1.52-.54,2.92-1.36,4.38-2.05-.22.21-.44.42-.66.64-.2.19.06.56.3.39,1.17-.81,2.4-1.69,3.78-2.08.63-.18,1.31-.35,1.96-.41.1,0,.21-.01.32-.01-2.32,3.33-6.86,3.33-10.06,5.7-3.22,2.39-4.35,6.47-3.84,10.33.32,2.37,1.12,4.71,2.02,6.91.26.62.49,1.48,1.14,1.81-.09.07-.17.14-.25.23-.17.18-.27.39-.36.62-.02.03-.05.06-.07.09-1.57,2.42-1.35,5.26-1.67,7.98-1.03,2.55-2.56,4.93-4.01,7.21-1.03,1.63-2.16,3.36-3.85,4.37-1.05.62-2.21.84-3.4.85-.25-.33-.8-.4-1.14-.09-.01.01-.02.03-.04.04-.56-.06-1.12-.15-1.67-.26-3.74-.77-7.61-1.97-11.01-3.73-.28-.15-.56-.3-.83-.46.02-.19-.18-.4-.38-.26-.01,0-.02.02-.04.03-1.15-.67-2.24-1.44-3.19-2.37ZM89.23,149.65c-1.65,3.51-4.19,6.06-7.21,8.42-2.74,2.13-5.67,4.22-7.71,7.08-2.42,3.39-2.44,7.52-3.46,11.4-4.35-7.21-8.44-14.52-11.87-22.22-1.83-4.1-3.33-8.47-3.45-13-.12-4.41.78-8.81,1.75-13.09.76-3.36,1.74-6.81,3.73-9.64.13.07.25.14.37.21,3.65,1.84,7.75,2.81,11.71,3.71.52.12,1.04.22,1.57.3-.71,1.14-1.24,2.45-1.7,3.75-.32.26-.62.54-.89.79-.88.83-1.7,1.69-2.45,2.64-1.54,1.95-2.67,4.12-3.83,6.3-.11.21.18.38.32.18,1.4-2.02,2.95-3.85,4.75-5.52.33-.31.67-.62,1-.93-.79,2.63-1.34,5.33-1.86,8.02-1.16,6-1.65,12.14-1.55,18.24,0,.24.35.23.37,0,.28-6.1,1.27-12.1,2.9-17.99.53-1.9,1.18-3.76,1.87-5.61.14.95.3,1.9.54,2.84.72,2.89,1.89,5.71,3.15,8.41.14.29.55.04.43-.25-1.12-2.6-1.75-5.29-2.16-8.09-.33-2.25-.42-4.49-.49-6.75.39-1.02.78-2.03,1.18-3.04.37-.93.73-1.84.95-2.8,1.13,0,2.26-.17,3.33-.6,2.1-.85,3.58-2.56,4.83-4.39.36-.53.72-1.07,1.08-1.62.05,3.13,1.4,6.23,3.5,8.72.18,1.89.63,3.74.89,5.62.31,2.29.49,4.62.57,6.93.14,4.08-.4,8.23-2.15,11.96ZM99.9,129.11c-1.7-.06-3.21-.53-4.67-1.39-4.52-2.63-8.06-7.62-7.85-12.79,1.95-3.17,3.61-6.58,4.07-10.24,0,0,0,0,0,0,.02-.06.04-.12.06-.19.11-.21.22-.43.3-.65.1-.26.19-.53.27-.79.07-.14.12-.3.21-.44.84-1.46,2.42-2.33,3.86-3.13-.64.94-1.15,1.97-1.51,3.04-.39,1.12-.51,2.33-.56,3.52-.05,1.26-.12,2.48-.29,3.73-.02.12.19.15.22.03.2-1.11.43-2.15.84-3.2.39-1.01.86-1.97,1.29-2.97.73-1.72,1.66-3.37,2.98-4.72.3-.3,1.05-1.02,1.01-1.58.42-.23.83-.47,1.24-.72.29-.16.57-.33.84-.51.01,0,.02-.01.03-.02,0,0,0,0,0,0,1.11-.77,2.1-1.7,2.96-2.76.6-.74,1.11-1.55,1.57-2.38-.61,2.07-1.07,4.18-1.22,6.37-.47,7.05,1.23,13.79,4.82,19.86.1.16.34.02.25-.15-3.57-6.73-3.52-14.58-2.09-21.87.35-1.8.84-3.56,1.44-5.29.63-1.8,1.38-3.59,1.73-5.47.15-.83.25-1.71.23-2.58.18,1.14.32,2.28.34,3.43.02,1.77-.21,3.54-.41,5.3-.39,3.43-.5,6.8-.08,10.23.42,3.35,1.21,6.66,2.46,9.79,1.32,3.28,3.16,6.14,5.2,9.01.11.15.36.01.25-.15-1.99-3.01-3.36-6.53-4.38-9.97-.99-3.34-1.6-6.77-1.71-10.26-.11-3.46.41-6.81.83-10.23.33-2.69.55-5.76-.78-8.16-.06-.31-.13-.61-.22-.91-.07-.22-.15-.44-.23-.66.57,1.13,1.22,2.23,1.6,3.45.28.9.49,1.83.61,2.76.15,1.15.04,2.29.11,3.44.05.75.19,1.45.4,2.14-.37,3.5-.6,7.06-.12,10.48.58,4.13,2.63,7.89,5.2,11.12.11.14.36-.05.25-.19-2.51-3.46-3.69-7.69-3.84-11.93-.07-2.04.2-4.14.37-6.23.23.24.48.48.75.7.05.07.09.16.14.23.97,1.45,2.31,2.73,4.11,2.94.79.09,1.64-.07,2.3-.52.53-.36.64-.82,1.42-.71.41.06.8.22,1.22.26,1.58.14,3.17-.58,4.12-1.84.41-.54.66-1.15.93-1.76,2.56,2.41,4.41,5.24,5.89,8.43.24,1.18.3,2.5.38,3.65.2,2.73-.01,5.43-.58,8.1-.32,1.53-.69,3.13-1.71,4.36-.87,1.05-2.02,1.83-2.97,2.81-1.98,2.06-2.68,4.94-4.74,6.98-.79.78-1.68,1.5-2.66,2.16-.05-.08-.1-.15-.17-.22-.12-.12-.27-.22-.4-.32-.16-.13-.32-.24-.48-.35-.06-.05-.13-.09-.19-.14-.03-.03-.07-.05-.1-.08-.01,0-.1-.08-.04-.03-.25-.2-.51-.41-.72-.65-.22-.25-.42-.51-.61-.78-.23-.32-.72-.04-.53.31.16.3.33.59.52.88.18.28.34.58.51.87.19.31.37.64.61.92.11.13.22.25.34.36-.43.25-.88.48-1.34.7-.02-.32-.23-.57-.46-.82-.19-.21-.37-.43-.57-.63-.42-.42-.87-.81-1.29-1.24-.4-.41-.79-.84-1.16-1.28-.4-.48-.72-.98-1.03-1.51-.13-.22-.47-.02-.34.2.3.52.59,1.04.86,1.58.28.55.55,1.1.85,1.64.28.51.56,1.05.89,1.54.18.27.41.53.62.78.1.12.2.22.31.3-.57.23-1.16.42-1.74.59-.26-.88-1.11-1.61-1.68-2.29-.65-.77-1.22-1.63-1.73-2.5-1.07-1.82-1.8-3.78-2.08-5.87-.03-.25-.41-.27-.41,0-.03,2.15.34,4.34,1.18,6.32.43,1,.96,1.93,1.62,2.8.32.43.67.84,1.01,1.26.18.23.35.45.53.66-2.37.46-4.78.43-6.98-.31-2.68-.9-4.9-2.87-7.72-3.42-1.52-.3-3.06-.17-4.6-.22ZM126.82,159.76c.89-5.12,2.18-10.32,4.37-15.05,1.15-2.47,2.58-4.8,4.35-6.88,1.45-1.71,3.15-3.04,5-4.23-.62,1.33-.93,2.73-.91,4.27.03,2.42.72,4.79,1.19,7.15.92,4.71,1.52,9.62.44,14.35-.97,4.28-3.26,8.1-5.59,11.77-2.39,3.78-4.85,7.54-6.68,11.64.18-2.94.28-5.87.58-8.8.64-6.23,1.58-12.56,4.1-18.34.06-.14-.14-.24-.21-.1-4.26,9.23-5.55,19.47-6.41,29.5,0,.05,0,.09,0,.14-.66-3.08-1.07-6.22-1.24-9.35-.3-5.37.11-10.78,1.03-16.08ZM53.37,183.83s0,0,.01,0c0,0,0,0,0,0,0,0,0,0-.01,0ZM45.51,185.85c1.79.41,3.71.59,5.53.34.45-.06.9-.15,1.34-.25,0,0,.01,0,.02,0-.67.8-1.43,1.5-2.4,2.14-1.59,1.04-3.37,1.78-5.21,2.26-3.73.97-7.83.82-11.43-.55-.09-.03-.17.11-.08.16,3.78,2.05,8.13,2.69,12.33,1.75,1.94-.43,3.79-1.19,5.49-2.22-.48.43-.98.84-1.53,1.23-2.82,2.03-6.4,3.08-9.85,3.12-8.12.09-15.15-4.6-20.78-10.04-1.95-1.89-3.85-3.86-5.59-5.96-.89-1.84-2.2-3.46-3.47-5.05-.72-.9-1.47-1.8-2.28-2.63-.57-.59-1.2-1.17-2.04-1.28-.21-.03-.29.31-.08.37.93.27,1.42,1.29,1.98,2.01.14.18.28.37.42.55-.11-.11-.2-.23-.32-.33-.67-.59-1.39-1.1-2.16-1.56-1.12-.66-2.31-1.17-3.58-1.34.76-.5,1.78-.55,2.67-.23.03.01.05,0,.08.01.72.27,1.47.47,2.14.77,1.42.62,2.77,1.39,4.04,2.28,2.84,1.98,5.27,4.48,7.61,7.02.03.03.08-.01.06-.05-2.24-2.88-4.4-5.84-7.18-8.23-1.2-1.04-2.51-1.97-3.94-2.67-1.07-.52-2.27-1.08-3.47-1.01-.61-.49-1.18-1.01-1.71-1.57.9.15,1.8.2,2.73.08.13-.02.21-.08.27-.15,1.07.5,2.21.85,3.35,1.2,2.98.91,6.06,1.4,9.06,2.21.23.06.36-.29.13-.36-2.76-.81-5.33-2.07-7.97-3.18-1.27-.53-2.55-1.05-3.76-1.7-.31-.16-.61-.34-.92-.51.37.08.75.14,1.14.19.56.06.72-.65.34-.96-.39-.32-.78-.63-1.17-.94,1.86.46,3.75.8,5.65.95,1.16.09,2.46.13,3.73,0-1.89,1.08-3.82,2.07-6.04,1.77-.17-.02-.18.23-.02.26,3,.61,5.97-.48,8.55-1.94,1.44-.82,2.82-1.61,4.44-2.02,1.53-.39,3.1-.4,4.64-.72.09-.02.11-.15.01-.18-.09-.03-.18-.04-.27-.07.91-.11,1.83-.17,2.76-.15,3.79.06,7.48,1.1,10.86,2.77,3.45,1.71,6.62,4.07,9.32,6.82,2.95,3.01,5.58,6.69,6.36,10.91.23,1.24.23,2.53.07,3.8-.19-.99-.56-1.98-.97-2.89-1.31-2.92-3.16-5.6-5.38-7.9-4.43-4.58-10.6-7.49-16.63-9.3-.1-.03-.15.12-.05.15,5.64,1.95,10.69,5.14,14.76,9.5,2.96,3.17,5.59,6.99,6.29,11.28-.13.04-.24.1-.37.16-.28.14-.59.28-.88.4-.66.27-1.4.42-2.09.59-1.45.35-2.93.5-4.42.45-.27,0-.39.42-.1.48ZM102.53,218.4c-2.55-10.55-3.53-21.33-2.51-32.15.54-5.77,1.5-11.49,2.59-17.18,1.58,4.6,3.28,9.15,5.33,13.58,2.4,5.18,5.3,10.17,6.96,15.66,1.58,5.21,2.09,10.64,1.54,16.05-.56,5.5-2.51,10.58-4.3,15.76-.37,1.08-.73,2.18-1.07,3.29-.12-3.29-.3-6.58-.47-9.87-.32-6.21-.66-12.45-2.51-18.43-.07-.23-.43-.14-.37.1,1.75,6.11,1.52,12.5,1.38,18.79-.07,3.17-.16,6.35-.19,9.52-.01,1.62,0,3.25.02,4.87-.61-1.58-1.22-3.17-1.79-4.77-1.8-4.99-3.37-10.08-4.62-15.23ZM97.21,256.68c-3.29-1.54-6.48-3.17-9.4-5.35-2.53-1.88-4.79-4.07-6.89-6.41-4.24-4.71-7.77-10-11.47-15.13-3.58-4.95-7.35-9.82-11.88-13.93,10.65,2.36,20.73,6.93,29.51,13.41,4.76,3.51,9.11,7.57,12.94,12.08,4.53,5.33,8.41,11.21,12.29,17.02.63.95,1.28,1.91,1.92,2.87-1.04-1.03-2.12-2.01-3.25-2.93-2.85-2.33-5.86-4.44-8.75-6.72-3.18-2.5-6.3-5.06-9.37-7.7-3.46-2.97-6.95-5.91-10.29-9.02-.18-.17-.45.1-.27.27,5.61,5.36,11.21,10.72,16.9,16,2.71,2.51,5.38,5.05,8.14,7.51,2.32,2.07,4.67,4.18,6.65,6.59.04.05.08.1.12.16-4.98-3.91-11.2-6.07-16.89-8.73ZM104.83,287.69c-1.98.34-3.95.75-5.92,1.19-7.65,1.69-15.43,3.71-23.32,2.47-3.73-.59-7.27-1.9-10.63-3.61-3.26-1.66-6.48-3.62-9.06-6.24-4.85-4.91-7.38-11.54-11.19-17.2-4.04-6-9.17-11.18-14.99-15.46,11.87-5.26,25.52-3.2,37.07,2.01,11.96,5.4,22.11,13.54,31,23.1,3.64,3.92,7.26,7.83,11.46,11.08-1.65-.63-3.34-1.16-5.06-1.64-1.45-.49-2.9-.98-4.34-1.48-4.24-1.47-8.46-3.05-12.4-5.2-.11-.07-.23-.14-.33-.21-.54-.35-1.09-.68-1.64-.98-.28-.54-.6-1.07-.96-1.57-.88-1.24-1.72-2.51-2.65-3.71-1.59-2.05-3.22-4.09-4.95-6.03-3.27-3.67-7.1-6.86-11.72-8.66-.13-.05-.22.17-.1.23,4.6,2.03,8.01,5.79,10.89,9.81,1.29,1.8,2.44,3.68,3.61,5.56-2.41-2.05-4.74-4.2-7.3-6.08-4.18-3.06-8.93-5.37-13.72-7.29-5.58-2.24-11.3-3.45-17.25-4.1-.19-.02-.24.32-.05.34,10.63,1.55,20.5,6.27,28.89,12.85,2.74,2.15,5.25,4.58,7.89,6.84-1.4-.05-2.8-.04-4.23-.09-6.11-.22-12.03-1.95-16.97-5.64-.13-.1-.3.12-.18.23,4.4,3.68,9.76,6.65,15.45,7.68,3.08.55,6.29.29,9.32,1.1.48.13.97.29,1.46.44.01,0,.03.02.04.03,2.54,1.66,5.26,3.02,8.06,4.2-1.92.38-3.8.99-5.57,1.67-3.51,1.35-6.92,2.41-10.73,2.1-3.83-.31-7.75-1.67-11.25-3.2-.17-.07-.32.18-.15.25,3.31,1.44,6.46,3.1,9.99,4.01,3.57.92,7.06.78,10.66.11,3.54-.67,6.96-1.81,10.57-1.98,1.48-.07,2.92-.08,4.34,0,2.67.94,5.35,1.87,8.04,2.76-.7.09-1.39.2-2.07.31ZM107.61,352.9c-6.17-10.25-11.79-20.77-12.8-32.91-.61-7.29.16-14.74,1.63-21.91,2.77,3.21,6.27,5.63,9.45,8.43,1.92,1.68,3.71,3.54,4.95,5.79,1.37,2.5,2.08,5.25,2.62,8.03,1.18,6.07,1.61,12.18,1.42,18.36-.19,6.26-1.17,12.5-.56,18.77.07.71.16,1.42.26,2.13-1.01-2.43-1.95-4.9-2.8-7.39-3.07-8.93-5.18-18.15-8.21-27.09-.07-.22-.43-.13-.35.1,3.97,12.17,5.38,25.21,10,37.17-1.81-3.22-3.74-6.37-5.61-9.47ZM131.06,366.95c2.91-5.67,6.66-10.94,11.03-15.58,8.7-9.25,19.89-16.75,31.96-20.76,7.13-2.37,14.61-3.6,22.1-2.61-4.28,12.04-11.09,24.82-23.66,29.58-3.13,1.19-6.39,1.97-9.64,2.74-3.46.82-6.89,1.71-10.32,2.65-6.01,1.64-12.23,3.31-17.63,6.53,2.35-2.78,4.84-5.47,7.44-8.02,6.3-6.19,13.25-11.7,20.78-16.31,4.2-2.58,8.56-4.92,13.1-6.85.16-.07.04-.35-.12-.28-16.8,6.85-32.5,16.85-44.47,30.64-1.13,1.3-2.22,2.65-3.2,4.08.8-1.99,1.67-3.94,2.63-5.81ZM199.48,274.99s0,0,0,.01c0,0,0,0,0,0,0,0,0,0,0-.01ZM198.28,269.71c.18-1.89.73-3.74,1.51-5.47,1.58-3.52,4.27-6.61,7.6-8.55.08-.05.02-.2-.07-.16-3.96,1.65-7.2,4.64-9.1,8.5-.88,1.78-1.45,3.7-1.72,5.67-.03-.64-.04-1.29,0-1.96.19-3.47,1.62-6.91,3.75-9.63,5.02-6.38,13.09-8.92,20.85-9.88,2.7-.34,5.42-.58,8.15-.62,1.99.46,4.08.46,6.11.46,1.16,0,2.33-.02,3.48-.12.81-.07,1.67-.2,2.27-.79.15-.15-.06-.42-.24-.29-.79.56-1.9.3-2.8.28-.23,0-.46-.01-.69-.02.15-.01.3-.01.46-.04.88-.15,1.73-.39,2.57-.7,1.21-.46,2.37-1.07,3.29-1.95-.09.91-.69,1.73-1.49,2.23-.03.02-.04.04-.06.06-.66.39-1.29.85-1.94,1.18-1.38.71-2.82,1.28-4.31,1.72-3.32.97-6.79,1.3-10.24,1.52-.05,0-.05.07,0,.07,3.65.07,7.31.23,10.92-.43,1.56-.28,3.11-.72,4.55-1.4,1.07-.5,2.27-1.09,2.96-2.07.76-.17,1.53-.28,2.3-.35-.68.6-1.28,1.28-1.78,2.08-.07.11-.07.21-.05.31-1.07.52-2.05,1.19-3.03,1.86-2.58,1.75-4.89,3.84-7.4,5.67-.2.14,0,.46.2.32,2.36-1.64,4.96-2.85,7.48-4.21,1.21-.65,2.41-1.33,3.68-1.87.32-.14.65-.26.97-.4-.29.24-.58.5-.86.77-.4.4.05.96.53.86.49-.1.98-.22,1.47-.32-1.52,1.16-2.98,2.42-4.28,3.81-.79.85-1.64,1.83-2.34,2.9.34-2.15.78-4.28,2.41-5.82.13-.12-.06-.29-.19-.18-2.36,1.95-3.37,4.95-3.85,7.87-.27,1.64-.51,3.21-1.21,4.73-.66,1.43-1.63,2.67-2.35,4.06-.04.08.05.18.13.13.08-.05.15-.11.23-.17-.49.78-1.01,1.53-1.61,2.24-2.43,2.91-5.54,5.13-8.97,6.72-3.5,1.62-7.32,2.61-11.15,2.98-4.19.41-8.71.15-12.48-1.89-1.11-.6-2.12-1.4-3-2.33.89.47,1.9.81,2.86,1.06,3.09.81,6.35,1.05,9.53.77,6.35-.57,12.49-3.56,17.67-7.12.08-.06,0-.19-.08-.14-5.05,3.17-10.7,5.1-16.66,5.53-4.33.31-8.95-.04-12.74-2.18.05-.13.08-.25.11-.39.06-.31.16-.63.24-.93.2-.69.55-1.35.85-2,.63-1.35,1.45-2.6,2.42-3.72.17-.2-.08-.57-.31-.38-1.44,1.14-2.79,2.52-3.74,4.09-.23.39-.45.79-.64,1.2,0,0,0,.01,0,.02-.21-1.02-.27-2.06-.16-3.21ZM168.68,257.98c-1.03-3.37-1.86-6.77-2.61-10.21-.86-3.9-2.17-7.68-3.1-11.56-.9-3.74-1.26-7.62-1.83-11.42-.58-3.87-.71-7.81-.47-11.72.27-4.38,1-8.75,2.09-13,.88-3.44,1.87-6.86,2.5-10.35.91,2.38,1.46,4.9,2.28,7.32,1.16,3.39,2.51,6.73,3.78,10.08,1.25,3.29,2.5,6.58,3.73,9.88,1.23,3.3,2.36,6.65,2.78,10.17.82,6.98.36,14.16-.01,21.15-.29,5.45-.71,10.9-1.03,16.35-.89-7.05-2.17-14.05-3.65-21-1-4.71-2.17-9.37-3.39-14.03-.06-.24-.43-.14-.37.1,4.05,16.2,5.29,32.82,5.67,49.46,0,.1,0,.2,0,.31-1.48-7.31-4.24-14.52-6.37-21.54Z"/>
    </g>
  </g>
</svg>