<?xml version="1.0" encoding="UTF-8"?>
<svg xmlns="http://www.w3.org/2000/svg" viewBox="0 0 380.79 388.04">
  <defs>
    <style>
      .cls-1 {
        fill: #edb253;
      }

      .cls-2 {
        fill: #9a3e29;
      }

      .cls-3 {
        fill: #6d6a7c;
      }

      .cls-4 {
        fill: #ded9d5;
        opacity: .55;
      }

      .cls-5 {
        fill: #933f5c;
      }

      .cls-6 {
        fill: #955bad;
      }

      .cls-7 {
        fill: #cc7d6d;
      }

      .cls-8, .cls-9, .cls-10, .cls-11, .cls-12 {
        mix-blend-mode: multiply;
      }

      .cls-8, .cls-10, .cls-11 {
        opacity: .5;
      }

      .cls-13 {
        fill: #a75141;
      }

      .cls-14 {
        fill: #a25871;
      }

      .cls-15 {
        opacity: .24;
      }

      .cls-15, .cls-16, .cls-17, .cls-18, .cls-19, .cls-20 {
        fill: #fff;
      }

      .cls-21 {
        fill: #d88500;
      }

      .cls-22 {
        fill: #79b0a2;
      }

      .cls-23 {
        isolation: isolate;
      }

      .cls-24 {
        fill: #5c5a69;
      }

      .cls-25 {
        fill: #f4e8e8;
      }

      .cls-26 {
        fill: #4c61a6;
      }

      .cls-27 {
        fill: #7b4691;
      }

      .cls-9 {
        fill: #ca9793;
        opacity: .67;
      }

      .cls-28 {
        fill: #659283;
      }

      .cls-29 {
        fill: #34488c;
      }

      .cls-30 {
        fill: #faeddc;
      }

      .cls-31 {
        fill: #667bbf;
      }

      .cls-32 {
        opacity: .56;
      }

      .cls-33 {
        opacity: .53;
      }

      .cls-34 {
        opacity: .51;
      }

      .cls-35 {
        opacity: .32;
      }

      .cls-36, .cls-11 {
        fill: #9496b8;
      }

      .cls-10 {
        fill: #b8a6a2;
      }

      .cls-37 {
        fill: #669589;
      }

      .cls-38 {
        fill: #4a4854;
      }

      .cls-16 {
        opacity: .17;
      }

      .cls-16, .cls-17, .cls-18, .cls-19, .cls-20 {
        mix-blend-mode: soft-light;
      }

      .cls-17 {
        opacity: .3;
      }

      .cls-18 {
        opacity: .81;
      }

      .cls-19 {
        opacity: .34;
      }

      .cls-20 {
        opacity: .46;
      }

      .cls-39 {
        fill: #f0c457;
      }

      .cls-40 {
        fill: #182342;
      }

      .cls-12 {
        fill: #8baec7;
        opacity: .28;
      }
    </style>
  </defs>
  <g class="cls-23">
    <g id="Layer_2" data-name="Layer 2">
      <g id="OBJECTS">
        <g>
          <ellipse class="cls-4" cx="190.39" cy="359.63" rx="190.39" ry="28.41"/>
          <g>
            <polygon class="cls-26" points="46.89 279.91 156.28 255.98 342.71 287.32 240.23 312.93 46.89 279.91"/>
            <polygon class="cls-11" points="46.89 279.91 156.28 255.98 337.67 286.47 231.58 311.45 46.89 279.91"/>
            <polygon class="cls-29" points="89.89 277.68 157.43 263.56 300.67 287.57 236.39 302.51 89.89 277.68"/>
            <path class="cls-31" d="M342.71,287.32v4.38l-3.59.89,1.25,58.96,4.1.51-.11,3.43-102.83,27.02s-11.24-2.35-11.9-10.28c-.93-11.21,10.59-59.31,10.59-59.31l102.48-25.61Z"/>
            <path class="cls-29" d="M241.54,382.52l-26.59-4.01-6.08-.99-137.65-22.64-6.05-.99-18.04-2.97s-5.5-11.45-5.5-33.64c0-24.64,5.26-37.36,5.26-37.36l19.88,3.4,5.78.99,136.97,23.4,5.8.99,24.91,4.26s-4.34,19.72-4.34,36.42c0,15.33,5.66,33.17,5.66,33.17Z"/>
            <g class="cls-34">
              <path class="cls-31" d="M219.59,369.5l-161.83-25.72s-4.61-9.21-4.61-22.79c0-15.09,2-25.91,2-25.91l164.37,27.1s-1.8,14.72-1.8,24.95c0,9.38,1.87,22.37,1.87,22.37Z"/>
            </g>
            <path class="cls-18" d="M238.86,317.69c.76-3.03,1.36-4.76,1.36-4.76l-167.68-28.64-5.78-.99-19.88-3.4s-1.39,1.45-2.74,6.19c16.93,1.61,184.77,29.22,194.72,31.6Z"/>
            <g>
              <path class="cls-30" d="M340.42,352.39l-95.39,24.63s-3.99-12.96-4.12-29.97c-.14-17.76,3.36-31.53,3.36-31.53l94.84-22.94,1.31,59.81Z"/>
              <path class="cls-40" d="M243.96,316.23c-.86,2.1-3.43,14.69-3.32,29.15.09,11.23,1.79,27.97,4.4,31.64,0,0,.94-20.48.94-30.37,0-15.4-2.02-30.43-2.02-30.43Z"/>
            </g>
            <polygon class="cls-10" points="242.14 324.84 244.27 315.52 339.12 292.58 339.34 301.02 242.14 324.84"/>
            <g class="cls-8">
              <path class="cls-12" d="M45.78,348.64c.77,1.62,1.34,2.27,1.34,2.27l18.04,2.97,6.05.99,137.65,22.64,6.08.99,26.59,4.01s-.31-.7-.77-1.98c0,0-192.86-31.71-194.98-31.9Z"/>
            </g>
          </g>
        </g>
        <g>
          <polygon class="cls-13" points="58.86 226.08 168.26 202.16 354.69 233.49 252.2 259.1 58.86 226.08"/>
          <polygon class="cls-10" points="58.86 226.08 168.26 202.16 337.67 230.63 240.91 257.18 58.86 226.08"/>
          <polygon class="cls-2" points="101.86 223.85 169.4 209.73 312.65 233.75 248.36 248.69 101.86 223.85"/>
          <polygon class="cls-7" points="354.69 233.49 354.49 237.12 351.09 238.75 352.35 273.86 354.16 275.02 354.05 278.46 253.51 304.83 252.2 259.1 354.69 233.49"/>
          <polygon class="cls-2" points="253.51 304.83 226.92 300.82 220.84 299.82 83.19 277.18 77.14 276.18 59.1 273.22 58.86 226.08 78.74 229.48 84.52 230.46 221.49 253.86 227.29 254.85 252.2 259.1 253.51 304.83"/>
          <g class="cls-33">
            <polygon class="cls-15" points="239.92 294.27 72.65 267.32 72.45 243.37 238.79 271.03 239.92 294.27"/>
          </g>
          <g class="cls-32">
            <path class="cls-18" d="M252.35,264.22l-.15-5.11-167.68-28.64-5.78-.99-19.88-3.4s-1.39,1.45-2.74,6.19c16.93,1.61,196.23,31.95,196.23,31.95Z"/>
          </g>
          <polygon class="cls-30" points="352.4 274.7 257.01 299.33 256.25 261.7 351.09 238.75 352.4 274.7"/>
          <path class="cls-40" d="M256.25,261.7l.76,37.64s3.2-5.68,3.2-18.17-3.96-19.47-3.96-19.47Z"/>
          <polygon class="cls-10" points="256.39 268.55 256.25 261.7 351.09 238.75 351.31 245.37 256.39 268.55"/>
          <g class="cls-8">
            <path class="cls-12" d="M57.76,270.95c.77,1.62,1.34,2.27,1.34,2.27l18.04,2.97,6.05.99,137.65,22.64,6.08.99,26.59,4.01s-.31-.7-.77-1.98c0,0-192.86-31.71-194.98-31.9Z"/>
          </g>
        </g>
        <g>
          <polygon class="cls-1" points="47.92 187.38 157.32 163.46 343.74 194.79 241.26 220.4 47.92 187.38"/>
          <polygon class="cls-9" points="47.92 187.38 157.32 163.46 332.87 192.96 231.23 218.69 47.92 187.38"/>
          <polygon class="cls-21" points="90.92 185.15 158.46 171.03 301.71 195.05 237.42 209.98 90.92 185.15"/>
          <polygon class="cls-39" points="343.74 194.79 343.55 198.41 340.15 200.05 341.41 221.82 343.22 222.99 343.11 226.42 242.57 252.79 241.26 220.4 343.74 194.79"/>
          <polygon class="cls-21" points="242.57 252.8 48.16 221.19 47.92 187.38 241.26 220.4 242.57 252.8"/>
          <g class="cls-35">
            <polygon class="cls-25" points="223.12 240.21 62.58 214.27 62.38 201.83 222.87 228.43 223.12 240.21"/>
          </g>
          <polygon class="cls-18" points="241.41 225.51 241.26 220.4 73.58 191.76 67.8 190.78 47.92 187.38 47.96 193.61 241.41 225.51"/>
          <polygon class="cls-30" points="341.46 222.67 246.07 247.3 245.31 222.99 340.15 200.05 341.46 222.67"/>
          <path class="cls-40" d="M245.31,222.99l.76,24.31s3.2-5.68,3.2-18.17-3.96-6.14-3.96-6.14Z"/>
          <polygon class="cls-10" points="245.45 229.85 245.31 222.99 340.15 200.05 340.37 206.67 245.45 229.85"/>
          <g class="cls-8">
            <path class="cls-12" d="M46.81,218.91c.77,1.62,1.34,2.27,1.34,2.27l18.04,2.97,6.05,1,137.65,22.64,6.08.99,26.59,4.01s-.31-.7-.77-1.98c0,0-192.86-31.71-194.98-31.9Z"/>
          </g>
        </g>
        <g>
          <polygon class="cls-28" points="40.73 142.26 150.13 121.47 336.55 148.71 234.07 170.97 40.73 142.26"/>
          <polygon class="cls-11" points="40.73 142.26 150.13 121.47 315.15 145.58 225.42 169.68 40.73 142.26"/>
          <polygon class="cls-37" points="83.73 140.33 151.27 128.06 294.52 148.93 230.23 161.91 83.73 140.33"/>
          <path class="cls-22" d="M336.55,148.71v3.8l-3.59.77,1.25,33.21,3.45.66-.11,2.98-102.18,23.28s-11.25-2.05-11.9-8.93c-2-21.05,10.59-33.51,10.59-33.51l102.48-22.26Z"/>
          <path class="cls-37" d="M235.38,213.41l-194.42-27.47s-5.5-1.84-5.5-21.13c0-21.42,5.26-22.55,5.26-22.55l25.66,3.81,167.68,24.89s-4.34,7.22-4.34,21.73c0,13.32,5.66,20.71,5.66,20.71Z"/>
          <g class="cls-8">
            <path class="cls-36" d="M213.43,202.1l-141.65-19.54-5.07-.71-15.11-2.1s-4.61.11-4.61-11.69c0-13.11,4.41-12.25,4.41-12.25l16.65,2.39,4.84.69,140.47,20.13s-1.8,2.88-1.8,11.76c0,8.16,1.87,11.33,1.87,11.33Z"/>
          </g>
          <path class="cls-20" d="M232.33,175.03c.76-2.64,1.74-4.06,1.74-4.06l-167.68-24.89-5.78-.86-19.88-2.95s-1.39,1.26-2.74,5.38c16.93,1.4,184.39,25.32,194.34,27.39Z"/>
          <g>
            <path class="cls-30" d="M334.27,187.23l-95.39,21.41s-2.77-2.92-2.9-17.71c-.14-15.44,2.14-17.71,2.14-17.71l94.84-19.94,1.31,33.95Z"/>
            <path class="cls-40" d="M238.12,173.22s-3.47,4.91-3.36,17.49c.09,9.76,1.51,14.74,4.12,17.93,0,0,.94-9.68.94-18.28,0-13.39-1.7-17.14-1.7-17.14Z"/>
          </g>
          <polygon class="cls-10" points="235.98 181.32 238.12 173.22 332.96 153.28 333.18 160.61 235.98 181.32"/>
          <g class="cls-8">
            <path class="cls-12" d="M39.62,183.97c.77,1.41,1.34,1.97,1.34,1.97l18.04,2.58,6.05.86,137.65,19.68,6.08.86,26.59,3.49s-.31-.61-.77-1.72c0,0-192.86-27.56-194.98-27.73Z"/>
          </g>
        </g>
        <g>
          <polygon class="cls-24" points="26.35 81.56 135.75 58.78 322.17 88.62 219.69 113.01 26.35 81.56"/>
          <polygon class="cls-11" points="26.35 81.56 135.75 58.78 317.14 87.81 211.04 111.6 26.35 81.56"/>
          <polygon class="cls-24" points="69.35 79.44 136.89 66 280.13 88.87 215.85 103.09 69.35 79.44"/>
          <path class="cls-3" d="M322.17,88.62v4.17l-3.59.85,1.25,44.29,3.45.72-.11,3.27-102.18,25.5s-11.24-2.24-11.9-9.78c-.93-10.67,10.59-44.62,10.59-44.62l102.48-24.39Z"/>
          <path class="cls-24" d="M221,167.42l-26.59-3.82-6.08-.95-137.65-21.56-6.05-.95-18.04-2.82s-5.5-5.96-5.5-27.1c0-23.46,5.26-28.66,5.26-28.66l19.88,3.24,5.78.94,136.97,22.28,5.8.94,24.91,4.05s-4.34,11.86-4.34,27.76c0,14.6,5.66,26.64,5.66,26.64Z"/>
          <path class="cls-38" d="M199.05,155.02l-141.65-21.41-5.07-.77-15.11-2.31s-4.61-3.83-4.61-16.76c0-14.36,4.41-17.38,4.41-17.38l16.65,2.62,4.84.76,140.47,22.05s-1.8,7.1-1.8,16.84c0,8.94,1.87,16.36,1.87,16.36Z"/>
          <path class="cls-16" d="M218.33,117.54c.76-2.89,1.36-4.54,1.36-4.54l-167.68-27.27-5.78-.94-19.88-3.24s-1.39,1.38-2.74,5.89c16.93,1.53,184.77,27.82,194.72,30.09Z"/>
          <g>
            <path class="cls-30" d="M319.89,138.73l-95.39,23.46s-3.99-7.4-4.12-23.6c-.14-16.91,3.36-23.11,3.36-23.11l94.84-21.85,1.31,45.1Z"/>
            <path class="cls-40" d="M223.42,116.15c-.86,2-3.43,7.07-3.32,20.84.09,10.69,1.79,21.69,4.4,25.19,0,0,.94-14.56.94-23.98,0-14.67-2.02-22.06-2.02-22.06Z"/>
          </g>
          <polygon class="cls-10" points="221.6 124.35 223.74 115.48 318.58 93.63 318.8 101.67 221.6 124.35"/>
          <g class="cls-8">
            <path class="cls-12" d="M25.24,135.15c.77,1.54,1.34,2.16,1.34,2.16l18.04,2.82,6.05.95,137.65,21.56,6.08.95,26.59,3.82s-.31-.67-.77-1.88c0,0-192.86-30.19-194.98-30.38Z"/>
          </g>
        </g>
        <g>
          <polygon class="cls-5" points="51.95 53.14 161.35 32.48 347.77 59.54 245.29 81.66 51.95 53.14"/>
          <polygon class="cls-11" points="51.95 53.14 161.35 32.48 326.37 56.43 236.64 80.38 51.95 53.14"/>
          <polygon class="cls-5" points="94.95 51.21 162.49 39.02 305.73 59.76 241.45 72.66 94.95 51.21"/>
          <path class="cls-14" d="M347.77,59.54v3.78l-3.59.77,1.25,18.67,3.45.65-.11,2.97-102.18,23.13s-7.02-1.58-7.98-12.14c-1.29-14.21,6.67-15.7,6.67-15.7l102.48-22.12Z"/>
          <path class="cls-5" d="M246.6,109.5l-194.42-27.3s-2.98-3.13-2.98-12.78c0-10.94,2.74-16.28,2.74-16.28l25.66,3.79,167.68,24.73s-3.43,5.43-2.73,17.69c.56,9.89,4.05,10.15,4.05,10.15Z"/>
          <path class="cls-17" d="M243.55,85.7c.76-2.62,1.74-4.04,1.74-4.04l-167.68-24.73-5.78-.85-19.88-2.94s-1,2.06-1.7,5.44c16.93,1.39,183.35,25.06,193.3,27.12Z"/>
          <g>
            <path class="cls-30" d="M345.49,83.48l-95.39,21.27s-2.27-3.55-2.27-8.19c0-8.54,1.51-12.67,1.51-12.67l94.84-19.81,1.31,19.4Z"/>
            <path class="cls-40" d="M249.34,83.9s-2.6,4.81-2.14,11.99c.59,9.22,2.9,8.87,2.9,8.87,0,0,.57-1.89.71-10.43.14-8.87-1.47-10.43-1.47-10.43Z"/>
          </g>
          <polygon class="cls-10" points="247.2 91.95 249.34 83.9 344.18 64.08 344.4 71.37 247.2 91.95"/>
          <g class="cls-8">
            <path class="cls-12" d="M50.84,80.24c.77,1.4,1.34,1.96,1.34,1.96l18.04,2.56,6.05.86,137.65,19.56,6.08.86,26.59,3.46s-1.24-.4-2.23-2.02c0,0-191.41-27.07-193.53-27.24Z"/>
          </g>
        </g>
        <g>
          <polygon class="cls-27" points="43.87 18.27 151.64 0 329.68 23.41 226.91 42.66 43.87 18.27"/>
          <polygon class="cls-6" points="74.97 16.99 152.47 4.38 299.28 23.56 224.14 36.64 74.97 16.99"/>
          <path class="cls-6" d="M329.68,23.41v2.53l-2.6.51.91,26.86,2.5.44-.08,1.98-102.55,19.93s-9.22-3.1-9.22-17.13c0-11.56,8.27-15.86,8.27-15.86l102.77-19.25Z"/>
          <path class="cls-27" d="M227.86,75.66l-19.23-2.32-4.4-.57L61.46,54.38l-4.38-.57-13.04-1.71s-3.98-3.62-3.98-16.43c0-14.23,3.81-17.38,3.81-17.38l14.37,1.96,4.18.57,142.28,18.83,4.2.57,18.01,2.46s-3.14,7.19-3.14,16.84c0,8.85,4.09,16.16,4.09,16.16Z"/>
          <path class="cls-6" d="M211.99,68.14l-145.66-18.3-3.67-.47-10.93-1.4s-3.33-2.32-3.33-10.17c0-8.71,3.19-10.54,3.19-10.54l12.04,1.59,3.5.46,144.81,18.69s-1.3,4.31-1.3,10.21c0,5.42,1.35,9.92,1.35,9.92Z"/>
          <path class="cls-19" d="M225.93,45.41c.55-1.75.98-2.75.98-2.75L62.43,20.81l-4.18-.57-14.37-1.96s-1,.84-1.98,3.57c12.24.93,176.84,22.19,184.04,23.56Z"/>
          <g>
            <path class="cls-30" d="M328.03,53.8l-97.64,18.68s-2.89-4.49-2.98-14.31c-.1-10.26,2.43-14.02,2.43-14.02l97.24-17.71.94,27.35Z"/>
            <path class="cls-40" d="M229.61,44.56c-.62,1.21-2.48,4.29-2.4,12.64.06,6.49,1.29,13.16,3.18,15.28,0,0,.68-8.83.68-14.54,0-8.9-1.46-13.38-1.46-13.38Z"/>
          </g>
          <polygon class="cls-10" points="228.29 49.54 229.84 44.16 327.08 26.45 327.24 31.32 228.29 49.54"/>
          <g class="cls-8">
            <path class="cls-12" d="M43.07,50.78c.56.93.97,1.31.97,1.31l13.04,1.71,4.38.57,142.77,18.39,4.4.57,19.23,2.32s-.22-.41-.56-1.14c0,0-182.69-23.62-184.23-23.74Z"/>
          </g>
        </g>
      </g>
    </g>
  </g>
</svg>