<?xml version="1.0" encoding="UTF-8"?>
<svg id="Layer_2" data-name="Layer 2" xmlns="http://www.w3.org/2000/svg" viewBox="0 0 374.58 354.35">
  <defs>
    <style>
      .cls-1 {
        fill: #333232;
      }

      .cls-2 {
        fill: #fff;
      }

      .cls-3 {
        fill: none;
        stroke: #333232;
        stroke-miterlimit: 10;
        stroke-width: 2.83px;
      }
    </style>
  </defs>
  <g id="OBJECTS">
    <g>
      <g>
        <g>
          <g>
            <path class="cls-1" d="M280.92,54.46l.82-4.25.29.29c-1.28.3-2.51.85-3.58,1.61l-.47.33v-.59c0-11.43-1.99-22.89-6.37-33.41-1.11-2.62-2.34-5.18-3.73-7.66-.7-1.23-1.42-2.46-2.19-3.65-.79-1.17-1.54-2.42-2.4-3.43-.85-1.02-1.87-1.72-3.05-1.86-1.17-.17-2.43.2-3.59.81-1.16.62-2.24,1.47-3.21,2.42-.96.95-1.88,2.06-2.76,3.14-7.01,8.83-10.52,20.14-10.69,31.35-.03,2.81.12,5.62.5,8.4.37,2.81.96,5.48,1.72,8.28.35,1.41.69,2.89.81,4.45.1,1.58.05,3.18-.59,4.84-.64,1.59-1.71,2.97-3.16,3.96-.73.49-1.57.87-2.5,1.04-.93.17-1.94.11-2.84-.22l1.43-2.38c1.2,1.1,2.68,1.92,4.25,2.36l2.47.7-1.89,1.74c-2.27,2.08-4.99,3.65-7.94,4.56l.72-2.29c1.04,1.34,2.58,2.32,4.23,2.7l2.8.65-2.17,1.89c-2.67,2.33-4.49,5.53-5.75,8.99-1.27,3.47-2.04,7.18-2.83,10.93-.8,3.75-1.59,7.59-2.98,11.35-1.37,3.74-3.48,7.46-6.68,10.19l-.86-2.79,5.65.64,7.17.81-6.85,2.31-6.1,2.06.55-2.77,3.34,2.88,1.76,1.51-2.02,1.15c-6.53,3.72-12.43,8.52-17.44,14.11-2.52,2.79-4.79,5.78-6.84,8.94-2.06,3.17-3.98,6.52-6.17,9.78-2.15,3.26-4.75,6.41-7.68,9.08-2.92,2.68-6.06,5.02-9.16,7.29-6.19,4.53-12.21,9.23-18.01,14.22-11.58,9.96-22.31,20.98-31.3,33.34-9.02,12.31-16.3,25.95-20.96,40.51-2.34,7.27-4.04,14.75-4.84,22.35-.42,3.8-.63,7.62-.71,11.45-.05,1.91-.05,3.83-.03,5.75,0,1.91.12,3.83,0,5.82-.12,1.98-.67,4.04-1.74,5.76-1.05,1.74-2.46,3.19-4,4.43-3.11,2.46-6.66,4.17-10.33,5.5-7.37,2.58-15.49,2.97-23.07,1.05-7.57-1.94-14.5-6.24-19.63-12.15-2.57-2.95-4.66-6.32-6.19-9.91-1.56-3.59-2.56-7.39-3.2-11.22-.64-3.84-.88-7.73-.89-11.6.01-3.87.21-7.76.79-11.61.56-3.85,1.5-7.67,2.96-11.31.71-1.83,1.62-3.58,2.61-5.28,1.01-1.69,2.21-3.28,3.5-4.78l.39,1.42c-3.89-1.19-8.25-.49-11.81,1.49-3.58,1.97-6.47,5.27-7.51,9.16l-.67,2.48-1.22-2.28c-.95-1.77-1.41-3.78-1.33-5.79l1.81.79c-4.23,4.32-6.58,10.45-6.34,16.45l.17,4.4-2.36-3.74-4.09-6.48,2.15-.1c-4.36,8.95-5.45,19.43-3.1,29.05l1.42,5.81-3.89-4.56-2.99-3.5,2.53-.75c-.85,7.08,1.4,14.52,6,19.92l1.9,2.23-2.91.3c-1.84.19-3.63-.57-4.79-2.02l2.74-1.33c2.12,8.38,9.26,15.38,17.64,17.33l12.26,2.85-12.6.45-5.81.21,1.37-2.62c1.65,2.57,4.23,4.47,7.15,5.7,2.93,1.23,6.18,1.85,9.46,2.09l11.35.81-11.08,2.64c-.97.23-1.97.37-2.92.44-.95.07-1.81.1-2.62.19l1.39-2.54c.78,1.65,3.21,2.53,5.78,2.87,2.65.34,5.44.54,8.17.63,5.49.16,10.98-.19,16.4-1.03l6.49-1.01-5.02,4.25-4.03,3.41-.92-3.26c8.43,1.25,17.27-.26,24.8-4.23l4.04-2.13-1.3,4.38-.8,2.69-3.09-2.03,7.7-6.49,4.29-3.62-1.13,5.51-1.23,6.02-2.66-2.23c4.32-1.74,8.1-4.85,10.66-8.73l6.55-9.93-2.93,11.53c-.23.89-.38,1.75-.39,2.51-.01.77.12,1.4.4,1.87.15.29.61.62,1.07.71.22.05.42.03.51,0,.1-.04.08-.03.12-.07l3.35,2.2-1.66,2.62-2.12-3.04,5.22-1.13,6.96-1.51-5.39,5.13c-.06.05-.12.1-.17.26-.05.16-.09.39-.06.65.07.53.27.9.81,1.38,1.02.89,3.02,1.53,4.84,1.93,3.75.8,7.88.63,12.09.65l25.1.03,50.19.1-.28.02c4.21-.62,8.42-1.08,12.59-1.57,4.18-.47,8.28-1.09,12.5-1.68,2.1-.29,4.21-.55,6.33-.77l1.59-.15c.5-.05,1.17-.09,1.42-.14.64-.14.95-.34,1.23-.87.28-.52.41-1.37.39-2.25-.03-.89-.16-1.83-.39-2.76-.45-1.85-1.2-3.78-2.16-5.27-1-1.43-2.45-2.64-4.14-3.42-1.68-.82-3.59-1.25-5.52-1.43-1.94-.16-3.92-.05-5.86.32-1.95.36-3.9.96-5.88,1.62-1.98.66-3.99,1.38-6.09,1.96-1.05.3-2.13.55-3.22.75l-.83.14c-.32.06-.63.07-.9.09l-1.6.1c-2.11.12-4.2.24-6.28.41-1.04.08-2.07.18-3.08.3-.5.06-1,.14-1.47.22-.23.04-.45.09-.63.15-.08.02-.17.06-.17.06,0,0,.02,0,.1-.07.07-.09.33-.19.44-.87l-2.9-.23.15-1.83,2.03,1.43c-4.57,2.03-9.51,3.22-14.49,3.47l-7.03.36,6.37-2.95c3.59-1.66,7.26-2.63,10.01-4.78l1.79-1.4.25,2.16c.01.1.1.24.39.38.27.12.65.16.92.08.73-.18,1.49-.87,2.3-1.73l1.29-1.37.73,1.72.73,1.72-1.9-.44,3.42-2.87,1.96-1.65v2.54s-.02,3.03-.02,3.03l-1.68-1.03c3.85-1.89,7.24-4.73,9.8-8.2l1.44-1.95.47,2.36c.38,1.91.28,3.9-.3,5.75l-1.7-1.04c2.41-2.31,4.07-5.42,4.64-8.73l.74-4.25,1.12,4.15c.3,1.12.35,2.31.14,3.45l-1.65-.73c2.4-3.09,3.85-6.92,4.11-10.83l.2-2.95,1.37,2.6,1.89,3.58-1.48.25c.85-4.81,1.7-9.6,1.92-14.44.24-4.82-.21-9.7-1.83-14.24-1.6-4.51-4.43-8.7-8.53-11.26-4.02-2.56-9.2-3.65-13.81-2.05l-.13-.35c1.17-.41,2.39-.68,3.62-.81,1.24-.1,2.48-.06,3.71.11,2.46.36,4.83,1.25,6.96,2.53,4.31,2.57,7.35,6.88,9.09,11.5,1.77,4.66,2.34,9.69,2.2,14.62-.13,4.95-.89,9.83-1.64,14.65l-.36,2.28-1.13-2.04-1.96-3.54,1.57-.35c-.21,4.26-1.73,8.44-4.31,11.86l-2.31,3.08.66-3.81c.15-.87.1-1.77-.14-2.61l1.86-.1c-.59,3.72-2.39,7.23-5.08,9.89l-2.84,2.8,1.13-3.84c.45-1.53.51-3.17.18-4.72l1.91.41c-2.71,3.78-6.33,6.9-10.48,9.03l-1.66.85-.02-1.88-.03-3.03,1.95.9-3.38,2.92-1.23,1.07-.67-1.51-.76-1.71,2.02.36c-.41.44-.86.92-1.4,1.36-.54.44-1.21.87-2.01,1.09-.88.24-1.76.17-2.59-.17-.81-.32-1.68-1.1-1.9-2.2l2.05.75c-1.62,1.3-3.45,2.22-5.23,2.99-1.79.78-3.55,1.44-5.19,2.24l-.66-2.59c4.65-.31,9.24-1.47,13.47-3.39l2.22-1.01-.18,2.44-.14,1.83-2.9-.23c.02-.17.06-.35.13-.5.06-.13.12-.23.19-.33.13-.17.25-.27.34-.35.19-.14.32-.21.44-.27.24-.11.41-.17.57-.22.33-.1.62-.17.91-.22.57-.11,1.11-.2,1.66-.27,1.08-.14,2.14-.25,3.21-.35,2.12-.19,4.24-.33,6.34-.47,3.99-.1,7.79-1.63,11.82-3,2.01-.69,4.1-1.35,6.28-1.78,2.19-.44,4.46-.58,6.72-.42,2.25.19,4.53.67,6.66,1.68,1.07.49,2.09,1.11,3.02,1.87.95.75,1.75,1.63,2.49,2.64,1.34,2.05,2.11,4.11,2.7,6.34.28,1.11.47,2.26.52,3.48.02,1.21-.06,2.54-.73,3.91-.33.67-.85,1.35-1.53,1.82-.67.48-1.43.76-2.15.9-.8.13-1.18.13-1.73.19l-1.55.16c-2.07.23-4.14.51-6.21.81-4.13.61-8.35,1.29-12.55,1.79-4.19.53-8.36,1.04-12.48,1.66l-.14.02h-.14s-50.19.1-50.19.1l-25.1.03c-4.14-.04-8.45.19-12.92-.75-1.11-.23-2.22-.55-3.3-.95-1.09-.42-2.26-.95-3.34-1.88-.54-.48-1.01-.99-1.44-1.71-.4-.71-.64-1.47-.73-2.26-.09-.78-.02-1.62.27-2.45.29-.83.88-1.66,1.67-2.21l1.57,3.61-5.22,1.13-4.7,1.02,2.58-4.05,1.66-2.62,3.35,2.2c-.53.8-1.42,1.41-2.29,1.65-.87.26-1.71.24-2.47.08-1.5-.32-2.87-1.17-3.74-2.64-.74-1.28-.95-2.7-.93-3.93.02-1.25.25-2.38.52-3.43l3.61,1.6c-3.03,4.57-7.45,8.15-12.54,10.18l-3.41,1.36.75-3.59,1.26-6.01,3.17,1.89-7.74,6.45-4.95,4.13,1.87-6.16.81-2.69,2.73,2.26c-8.29,4.31-17.91,5.9-27.13,4.49l-4.06-.62,3.14-2.63,4.04-3.39,1.47,3.23c-5.65.86-11.38,1.19-17.08.99-2.87-.11-5.67-.32-8.57-.71-1.48-.22-3-.55-4.52-1.24-1.5-.67-3.06-1.86-3.9-3.58l-1.11-2.27,2.5-.27c.98-.1,1.9-.13,2.73-.19.84-.06,1.61-.16,2.38-.34l.27,3.45c-3.56-.28-7.15-.96-10.55-2.41-1.69-.73-3.34-1.65-4.82-2.83-1.48-1.17-2.8-2.59-3.83-4.2l-1.63-2.54,3-.08,5.82-.16-.34,3.3c-9.64-2.37-17.5-10.24-19.87-19.83l-1.88-7.6,4.62,6.27c.43.58,1.29.95,2.01.87l-1.01,2.52c-5.13-6.13-7.52-14.36-6.51-22.26l.42-3.27,2.11,2.52,2.96,3.53-2.47,1.25c-2.41-10.31-1.06-21.38,3.66-30.8l1-1.98,1.15,1.88,4,6.54-2.18.66c-.17-6.68,2.5-13.32,7.2-18.02l1.95-1.95-.15,2.74c-.09,1.63.27,3.29,1.03,4.74l-1.89.2c.63-2.23,1.79-4.29,3.27-6.02,1.49-1.74,3.3-3.18,5.3-4.25,2-1.08,4.19-1.8,6.46-2.08,2.26-.28,4.59-.11,6.78.58l1.3.41-.91,1.01c-2.5,2.78-4.48,6.01-5.91,9.5-1.44,3.48-2.4,7.17-2.99,10.92-.61,3.75-.85,7.57-.87,11.38,0,3.81.22,7.63.83,11.38,1.18,7.49,4,14.81,9,20.53,4.93,5.73,11.64,9.94,18.97,11.85,7.34,1.92,15.24,1.42,22.37-1.1,3.54-1.3,7-3.01,9.92-5.35,1.44-1.18,2.74-2.54,3.67-4.11.95-1.56,1.42-3.32,1.53-5.18.11-1.85-.01-3.78-.03-5.71-.02-1.93-.03-3.86,0-5.79.06-3.86.26-7.73.66-11.58.76-7.7,2.33-15.34,4.61-22.73,4.51-14.83,11.72-28.78,20.69-41.4,8.95-12.67,19.67-23.99,31.27-34.23,5.8-5.12,11.92-9.89,18.12-14.48,3.08-2.29,6.12-4.57,8.85-7.11,2.75-2.53,5.07-5.37,7.15-8.53,2.09-3.14,3.98-6.48,6.09-9.76,2.12-3.3,4.49-6.47,7.12-9.4,5.26-5.86,11.49-10.84,18.35-14.7l-.27,2.67-3.33-2.9-2.15-1.88,2.7-.9,6.11-2.03.33,3.13-5.65-.67-3.65-.43,2.79-2.36c2.69-2.27,4.54-5.43,5.82-8.87,1.29-3.45,2.09-7.15,2.91-10.9.82-3.75,1.63-7.58,3.02-11.33,1.37-3.73,3.46-7.43,6.63-10.16l.63,2.54c-2.32-.56-4.4-1.9-5.86-3.78l-1.3-1.67,2.02-.61c2.53-.76,4.9-2.11,6.85-3.89l.57,2.44c-2-.58-3.85-1.62-5.38-3.03l-5.2-4.8,6.63,2.42c.88.32,1.91.13,2.85-.49.93-.61,1.72-1.58,2.16-2.65.11-.27.2-.54.26-.81.06-.3.12-.6.15-.91.07-.62.08-1.26.04-1.91-.08-1.3-.36-2.64-.68-4.02-.7-2.75-1.32-5.7-1.66-8.59-.35-2.91-.48-5.85-.4-8.77.33-11.68,4.14-23.41,11.57-32.53.95-1.13,1.88-2.22,2.97-3.28,1.09-1.04,2.3-1.98,3.68-2.69,1.37-.7,3-1.2,4.7-.94.84.13,1.65.44,2.35.91.7.46,1.27,1.04,1.76,1.64,3.49,4.8,6.1,9.93,8.27,15.33,4.21,10.8,6.04,22.42,5.71,33.93l-.47-.25c1.16-.77,2.46-1.31,3.82-1.59l.38-.08-.08.37-.93,4.23-.37-.08Z"/>
            <path class="cls-1" d="M277.94,44.62c4.3-.68,8.61-1.31,12.99-1.56,4.37-.26,8.83-.14,13.21.83,4.35.96,8.63,2.68,12.27,5.47,1.82,1.37,3.47,3.05,4.83,4.86,1.38,1.8,2.52,3.69,3.7,5.49,1.17,1.8,2.37,3.51,3.77,4.93,1.41,1.41,2.99,2.49,4.82,3.09,3.67,1.22,8.08.85,12.43.93,8.69.02,17.39.13,26.08.31l.85.02.45.69c.74,1.14,1.14,2.51,1.23,3.81.09,1.31-.08,2.54-.35,3.7-.54,2.32-1.42,4.38-2.12,6.4-1.45,3.92-1.52,8.38-2.93,12.8-.69,2.2-1.85,4.31-3.37,6.05-1.52,1.75-3.38,3.16-5.38,4.25-3.99,2.21-8.43,3.21-12.83,3.8-4.42.62-8.87.37-13.2.75-2.17.19-4.32.47-6.38,1.08-2.05.6-4.01,1.51-5.64,2.84-3.36,2.55-4.8,6.99-4.44,11.11.32,4.13,2.44,8.2,5.94,10.18l1.64.93-1.68.95c-4.6,2.61-10.02,3.76-15.34,3.22l1.3-2.16c1.54,2.13,3.55,3.92,5.86,5.15l3.02,1.61-3.27,1.13c-1.98.68-4.1.94-6.19.73l1.74-1.58c.06,2.01.68,3.97,1.73,5.8,1.03,1.83,2.41,3.55,3.89,5.24,1.48,1.69,3.08,3.34,4.63,5.12,1.55,1.76,3.07,3.72,4.27,5.86,2.4,4.27,3.8,9.07,4.06,13.96.25,4.88-.55,9.85-2.58,14.36l-2.53,5.62-1.26-6.04-1.13-5.4,3.95-.05c-.9,4.99-1.82,9.98-2.83,14.95-.99,4.97-2.01,9.94-3.06,14.9l-1.38,6.51-2.25-6.23-1.31-3.64,3.52-.17c-2.68,9.61-10.2,17.51-19.52,20.68l-2.65.9.73-2.67c.27-1,.64-1.86.91-2.65.28-.79.45-1.5.45-2.16l2.79.25c-1.93,8.6-7.63,16.12-15.21,20.29l-1.42.78.12-1.57.29-3.82,1.45.34c-2.66,5.64-7.93,9.86-13.86,11.17l-.1-.36c5.68-1.73,10.43-6.05,12.57-11.41l1.53-3.83-.08,4.17-.07,3.83-1.3-.79c6.96-4.22,11.92-11.5,13.31-19.35l2.33-13.06.46,13.31c.04,1.14-.23,2.21-.52,3.12-.3.92-.61,1.73-.79,2.47l-1.93-1.76c8.28-3.04,14.84-10.4,16.92-18.83l1.4-5.67,2.12,5.49,1.39,3.61-3.63.28c.99-4.96,1.94-9.92,2.87-14.89l2.77-14.91,1.87-10.07,2.08,10.02,1.12,5.4-3.79-.42c1.73-3.89,2.55-8.22,2.38-12.52-.17-4.31-1.34-8.58-3.4-12.36-1.99-3.77-5.27-6.93-8.32-10.5-1.52-1.79-3.03-3.69-4.2-5.91-1.18-2.19-1.95-4.75-1.95-7.35v-1.8s1.75.22,1.75.22c1.63.2,3.32.05,4.9-.45l-.25,2.74c-2.67-1.52-4.98-3.65-6.68-6.2l-1.72-2.59,3.03.43c4.71.67,9.69-.16,13.97-2.38l-.04,1.88c-2.04-1.28-3.66-3.14-4.74-5.23-1.09-2.09-1.67-4.39-1.78-6.71-.11-2.31.26-4.65,1.15-6.79.89-2.13,2.31-4.1,4.18-5.46,1.82-1.42,3.95-2.35,6.12-2.95,2.17-.63,4.4-.9,6.62-1.08,4.44-.33,8.83-.16,13.13-.79,4.3-.58,8.56-1.76,12.24-3.9,3.68-2.15,6.5-5.55,7.53-9.6,1.12-4.03,1.01-8.56,2.41-13.01.65-2.15,1.41-4.2,1.78-6.19.39-2,.27-3.85-.69-5.23l1.3.71c-8.7.05-17.39.03-26.08-.09-2.18-.04-4.32-.03-6.57-.11-2.24-.1-4.58-.33-6.88-1.13-2.32-.77-4.38-2.28-5.99-3.99-1.61-1.72-2.86-3.63-4.02-5.5-2.31-3.76-4.35-7.38-7.63-9.93-3.2-2.61-7.1-4.39-11.17-5.5-4.09-1.08-8.39-1.49-12.7-1.5-4.31-.02-8.65.35-12.99.65l-.04-.37Z"/>
            <path class="cls-1" d="M283.01,237.03c-2.43,5.44-4.95,10.83-7.11,16.36-1.12,2.75-2.18,5.51-3.14,8.3-.98,2.79-1.87,5.6-2.64,8.44-.79,2.83-1.42,5.7-1.98,8.58-.53,2.88-.91,5.78-1.16,8.7-.26,2.91-.39,5.83-.28,8.71.11,2.88.49,5.72,1.29,8.36.81,2.62,2.18,5.15,3.73,7.57,1.54,2.44,3.3,4.78,5.13,7.09l2.77,3.47c.95,1.18,1.79,2.28,2.73,2.8.87.52,2.14.49,3.61.33,1.49-.18,3.15-.23,4.7-.04,6.27.7,12.11,4.39,15.04,9.95.7,1.4,1.21,2.92,1.32,4.51.1,1.57-.1,3.24-.93,4.67-.8,1.41-2.04,2.54-3.51,3.21-1.46.67-3.26.82-4.8.11l.81-.6c.08.57.03,1.2-.21,1.76-.23.56-.62,1.03-1.05,1.39-.87.73-1.88,1.12-2.89,1.4-1.01.27-2.04.41-3.08.45h-3c-3.97,0-7.94.05-11.91.09-3.93,0-8.01.29-12.12-.8-2.04-.55-4.05-1.54-5.69-2.99-1.64-1.45-2.98-3.45-3.39-5.78l2.51.53-1.25,2-1.69,2.7-.87-3.13c-.8-2.9-1.33-5.87-1.58-8.88l3.01.44-1.4,3.97-4.03,11.41.9-12.12c.29-3.96-1.7-8.12-4.95-10.32l-.47-.32-.2-.58-.99-2.91,3.43-.06c-.54,1.84-1.87,3.33-3.65,4.07l-1.74.73-.67-1.8c-2.25-6.05-2.55-12.45-2.6-18.51-.02-6.1.21-12.02-.77-17.76-.89-5.76-2.7-11.39-5.34-16.6-.64-1.31-1.36-2.59-2.1-3.85l-1.17-1.87c-.43-.66-.84-1.34-1.23-2.05-.77-1.42-1.48-2.94-1.8-4.75-.16-.9-.19-1.9.05-2.91.23-1.02.8-2,1.51-2.72l2.04,2.46c-2.75,1.75-5.88,2.86-9.1,3.22l-2.73.31,1.23-2.41c1.98-3.87,4.06-7.7,6.08-11.55l1.71,1.47c-.92.61-1.82,1.29-2.92,1.91-.55.3-1.16.58-1.83.74-.67.16-1.38.2-2.04.11l-1.91-.24,1.27-1.39c2.63-2.89,5.28-5.75,7.95-8.6,2.66-2.86,5.32-5.71,8.02-8.54l.28.25c-2.42,3.06-4.89,6.09-7.35,9.12-2.45,3.04-4.92,6.06-7.41,9.06l-.65-1.63c.93.07,1.73-.2,2.59-.74.85-.54,1.73-1.27,2.66-1.95l3.69-2.72-1.97,4.19c-1.85,3.94-3.65,7.9-5.55,11.82l-1.5-2.1c2.76-.4,5.42-1.44,7.7-3l11.63-7.95-9.6,10.41c-.65.71-.81,1.6-.57,2.8.24,1.17.84,2.42,1.55,3.63.36.6.75,1.2,1.16,1.8l1.29,1.93c.83,1.32,1.64,2.65,2.36,4.04,2.9,5.52,4.93,11.51,5.97,17.68,1.06,6.21.8,12.44.78,18.41-.07,5.97.16,11.87,2.06,17.24l-2.41-1.07c.71-.26,1.36-.95,1.58-1.69l1.66-5.57,1.77,5.51.94,2.93-.67-.9c4.29,3.06,6.69,8.33,6.15,13.52l-3.13-.71,1.52-3.93,2.64-6.82.36,7.26c.14,2.81.55,5.62,1.22,8.36l-2.56-.43,1.3-1.9,2.06-3.02.45,3.55c.2,1.61,1.09,3.16,2.35,4.39,1.28,1.24,2.88,2.14,4.64,2.7,3.56,1.15,7.55,1.05,11.52,1.21,3.97.12,7.93.25,11.9.32l2.96.06c.94,0,1.89-.13,2.8-.36.9-.24,1.78-.59,2.44-1.14.67-.54,1-1.28.88-2.1l-.16-1.06.96.46c1.19.57,2.62.47,3.85-.12,1.23-.57,2.29-1.56,2.94-2.75.66-1.17.86-2.6.71-3.97-.14-1.38-.63-2.73-1.3-3.97-1.36-2.48-3.53-4.5-5.97-5.93-2.45-1.43-5.23-2.28-8.02-2.45-1.42-.09-2.75.01-4.2.25-.74.11-1.54.23-2.42.22-.87,0-1.85-.17-2.72-.61-1.73-.89-2.73-2.25-3.71-3.3l-2.97-3.38c-3.83-4.61-7.68-9.49-9.7-15.62-.94-3.07-1.26-6.18-1.35-9.25-.08-3.07.09-6.12.41-9.13.68-6.01,1.91-11.98,3.77-17.72,3.62-11.52,9.18-22.19,15.09-32.52l.34.17Z"/>
            <path class="cls-1" d="M236.39,277.69c.22,1.28.2,2.49.13,3.69-.09,1.19-.28,2.36-.54,3.51-.23,1.15-.68,2.25-1.27,3.31-.58,1.06-1.23,2.1-1.62,3.21l-.43,1.22-.64-1.02c-.56-.89-1.22-1.7-1.97-2.44-.75-.74-1.58-1.43-2.38-2.14l.89.55c.08.07.32.06.47,0,.15-.06.2-.09.22-.07.02.05-.02.26-.02.48v.38l-.02.6c0,.4-.06.8-.1,1.21-.19,1.6-.72,3.17-1.56,4.54-.83,1.38-1.95,2.56-3.22,3.5-1.29.91-2.74,1.59-4.29,1.78l-.18-.33c.93-1.2,1.75-2.28,2.44-3.42.71-1.1,1.27-2.25,1.77-3.39.49-1.14.97-2.26,1.34-3.45.08-.3.19-.59.24-.9l.24-1.14c.13-.48.29-.96.68-1.52.21-.28.49-.59.95-.83.45-.25,1.07-.31,1.5-.18l.73.21.16.34c.44.97.85,1.97,1.34,2.9.48.94,1.06,1.81,1.74,2.61l-1.07.2c.23-1.16.2-2.38.23-3.59.03-1.21.2-2.38.58-3.5.36-1.12.78-2.22,1.31-3.3.55-1.07,1.13-2.13,1.97-3.12l.36.1Z"/>
          </g>
          <path class="cls-1" d="M356.59,77.97c.5,2.46,1.59,4.72,3.73,6.15,1.17.78,3.08,1.07,3.71-.18.43-.85-.03-1.86-.13-2.81-.1-.95.7-2.19,1.54-1.74.78.41.43,1.56.23,2.42-.3,1.28.08,2.76,1.12,3.57,1.04.81,2.73.75,3.56-.28.37-.46.55-1.05.71-1.61.62-2.13,1.24-4.25,1.87-6.38.96-3.29,1.27-7.37-2.96-7.81-4.15-.43-8.83.43-12.87,1.34-.21.05-.44.1-.58.26-.16.18-.19.43-.21.67-.15,2-.16,4.27.27,6.4Z"/>
          <path class="cls-1" d="M264.8,6.86c-.93-1.01-2.48-1.16-3.69-.73-1.24.45-2.2,1.46-2.91,2.59-1.45,2.29-2.11,4.99-2.41,7.7-.48,5.47-.46,11.06.06,16.55.49,5.5,1.44,10.96,2.79,16.31.7,2.67,1.46,5.34,2.39,7.92.94,2.56,2.11,5.03,3.82,7.08l-1.37.65c-.84-4.85-1.24-9.78-1.18-14.7l.07-5.42,1.23,5.27c.78,3.37,2.12,6.61,3.94,9.56l-1.05.41c-.77-4.35-.32-8.89,1.3-12.99l.62-1.58.27,1.66c.77,4.69,2.23,9.27,4.31,13.55l-.59.16c-.18-4.16-.15-8.33.1-12.49l.07-1.11.28,1.07,1.99,7.51-.18.05-2.16-7.46.35-.04c-.16,4.15-.1,8.3.17,12.44l.1,1.5-.69-1.34c-2.2-4.29-3.78-8.91-4.67-13.67l.9.09c-1.49,3.95-1.85,8.31-1.05,12.44l.57,2.95-1.62-2.54c-1.93-3.02-3.38-6.37-4.25-9.86l1.3-.15c.02,4.84.48,9.67,1.4,14.41l.56,2.86-1.92-2.21c-1.93-2.21-3.23-4.84-4.26-7.48-1.01-2.65-1.86-5.33-2.59-8.05-1.48-5.44-2.4-11.03-2.79-16.65-.18-2.81-.24-5.63-.17-8.44.09-2.81.22-5.61.67-8.43.46-2.79,1.29-5.63,2.99-7.99.85-1.16,2-2.21,3.44-2.62,1.41-.4,3.09-.06,3.99,1.12l-.15.12Z"/>
          <g>
            <path class="cls-1" d="M316.62,70.02c.31,1.55.02,3.17-.59,4.62-.34.81-.78,1.59-1.39,2.23-1.57,1.66-4.18,2.18-6.34,1.43-2.33-.81-4.1-3.03-4.37-5.49s.97-5.01,3.06-6.31c3.39-2.11,8.8-.66,9.64,3.52Z"/>
            <path class="cls-2" d="M306.89,74.16c-.25.11-.52.22-.69.44-.26.33-.21.84.02,1.2.23.36.59.61.95.83.49.3,1,.59,1.56.69s1.19,0,1.6-.4c.2-.2.34-.45.46-.7.39-.79,1.56-3.89-.06-4.17-.57-.1-1.24.59-1.66.89-.69.48-1.42.89-2.18,1.23Z"/>
            <path class="cls-2" d="M305.73,71.88c-.32.22-.58.58-.56.97,0,.12.03.25.11.34.14.18.39.22.61.22.68.02,1.37-.18,1.94-.54.38-.24,1.34-.95,1.2-1.5-.22-.82-2.83.2-3.29.52Z"/>
            <path class="cls-1" d="M318.76,68.21c-.33-2.69-1.76-5.18-3.79-6.92-2.02-1.74-4.59-2.84-7.14-2.97-2.53-.15-4.83,1.22-6.3,3.15-1.5,1.92-2.16,4.37-1.93,6.79.08,1.21.38,2.41.87,3.52.5,1.1,1.12,2.17,2.02,3.01,1.68,1.76,4.04,3.01,6.6,3.17,1.28.15,2.58-.05,3.83-.41,1.24-.41,2.4-1.08,3.38-1.97.24-.23.43-.5.65-.75l.32-.38c.1-.13.17-.29.26-.43l.5-.87c.12-.31.23-.63.33-.95.27-.62.27-1.31.4-1.97.06-.67,0-1.35,0-2.02ZM318.76,68.21c.33,2.67-.39,5.52-2.23,7.6-1.86,2.04-4.61,3.27-7.47,3.34-2.86.17-5.8-.92-8-2.89-2.27-1.94-3.57-4.86-3.83-7.81-.11-1.49.06-3,.5-4.43.46-1.44,1.26-2.75,2.24-3.86,1-1.1,2.24-1.99,3.63-2.55,1.38-.55,2.94-.71,4.36-.46,2.83.5,5.32,1.97,7.24,3.9,1.92,1.94,3.27,4.46,3.56,7.16Z"/>
            <path class="cls-2" d="M312.51,74.43c-.06.28-.08.56-.1.73-.04.23-.07.47-.04.7.04.23.16.46.36.57.35.18.77-.03,1.09-.24.15-.1.29-.2.4-.34.18-.24.23-.56.17-.85-.05-.29-.19-.56-.35-.82-.17-.28-.39-.56-.71-.64-.52-.14-.73.38-.83.89Z"/>
          </g>
          <path class="cls-1" d="M299.3,76.23c-.45-.53-.93-1.01-1.46-1.43-.53-.41-1.09-.77-1.69-1.05-.3-.14-.6-.27-.91-.37-.31-.11-.63-.21-.9-.22-.27-.02-.46.06-.53.19-.09.14-.07.4.03.49l2.57,2.37-3.01-1.78c-1.37-.8-3.06-1.09-4.73-.76,1.53-.79,3.51-.76,5.1.1l-.45.6c-.39-.4-.43-.97-.18-1.42.27-.5.87-.63,1.26-.58.82.11,1.43.41,2.07.76,1.25.71,2.27,1.81,2.83,3.09Z"/>
          <path class="cls-1" d="M318.78,97.8c-2.67-.28-5.38-.61-7.95-1.54-2.52-.98-4.9-2.6-6.31-4.95l.16-.1c1.26.78,2.35,1.37,3.46,1.9.57.24,1.09.52,1.67.73.55.23,1.11.48,1.68.66.56.24,1.15.44,1.74.64.58.25,1.2.41,1.81.68,1.23.47,2.5.98,3.76,1.8l-.02.19Z"/>
          <path class="cls-1" d="M308.14,46.72c2.88,2.05,5.45,4.55,7.69,7.31,2.21,2.78,4.07,5.85,5.54,9.1,1.48,3.25,2.49,6.7,3.1,10.22.6,3.52.77,7.13.41,10.7l-.07.73-.71-.19c-3.17-.83-6.39-1.5-9.63-2.01-3.24-.54-6.5-.91-9.78-1.12-3.26-.2-6.6-.27-9.66.84-1.51.56-2.89,1.47-3.97,2.66-1.07,1.21-1.85,2.66-2.36,4.2-.99,3.11-.96,6.48-.36,9.68.61,3.21,1.92,6.27,3.69,9,3.55,5.45,9.06,9.64,15.31,11.23l4.9,1.25-5.07-.04c-5.14-.04-10.25-1.33-14.82-3.7l.89-1.05c2.22,2.94,5.07,5.34,8.17,7.38,3.1,2.04,6.47,3.71,9.86,5.31l3.13,1.48-3.46-.11c-2.77-.09-5.47-.74-8.01-1.7-2.54-.97-4.95-2.21-7.25-3.62l.86-.77c1.03,2.28,2.59,4.31,4.46,6,1.86,1.71,4.03,3.09,6.35,4.15,4.67,2.09,9.84,2.96,14.99,3.33v.14c-5.17-.13-10.44-.71-15.31-2.73-2.43-1.01-4.72-2.37-6.74-4.09-2-1.73-3.71-3.85-4.86-6.28l-.84-1.77,1.7.99c2.27,1.33,4.64,2.49,7.1,3.37,2.46.86,5.01,1.49,7.57,1.55l-.32,1.37c-3.42-1.6-6.85-3.28-10.07-5.37-3.22-2.07-6.18-4.66-8.48-7.77l-1.87-2.53,2.76,1.48c4.34,2.32,9.25,3.59,14.18,3.72l-.17,1.21c-6.57-1.78-12.15-6.32-15.62-12.02-1.75-2.85-2.97-6.02-3.57-9.3-.59-3.27-.58-6.71.45-9.91.5-1.6,1.29-3.12,2.4-4.4,1.12-1.27,2.56-2.25,4.14-2.85,3.17-1.24,6.6-1.28,9.9-1.18,3.31.11,6.63.38,9.92.83,3.29.48,6.55,1.13,9.77,1.94l-.79.55c.35-3.45.25-6.95-.29-10.39-.53-3.44-1.54-6.8-2.87-10.02-1.34-3.22-3.08-6.28-5.17-9.08-2.06-2.83-4.51-5.37-7.24-7.6l.09-.11Z"/>
          <path class="cls-1" d="M229.84,348.36c-.23-2.3-.45-4.51-1.1-6.54-.62-2.02-1.76-3.82-3.45-5.17-1.66-1.35-3.78-2.21-6.01-2.33-2.23-.13-4.55.43-6.53,1.66,1.79-1.49,4.1-2.41,6.52-2.6,2.42-.2,4.95.42,7.09,1.72,2.17,1.27,3.94,3.35,5,5.66,1.09,2.3,1.65,4.71,2.2,6.98l-3.72.62Z"/>
          <path class="cls-1" d="M297.41,347.86c-.43-2.08-.76-4.18-1.34-6.13-.58-1.94-1.55-3.78-3.2-4.9-1.65-1.11-3.8-1.46-5.84-1.16-2.06.31-4.01,1.23-5.78,2.39,1.67-1.29,3.57-2.37,5.69-2.85,2.1-.48,4.44-.3,6.42.82,2,1.14,3.27,3.2,4.04,5.23.79,2.07,1.26,4.13,1.84,6.17l-1.83.43Z"/>
          <path class="cls-1" d="M227.61,99.94c1.83-7.34,6.58-13.92,13.03-17.99l.89-.56-.42.98c-3.63,8.45-5.67,17.56-5.95,26.72l-1.03-.29c5.22-9.51,12.45-17.95,21.15-24.48l2.42-1.82-1.34,2.72c-2.82,5.73-6.6,10.84-9.87,16.15-1.62,2.66-3.1,5.4-4.14,8.29-1.05,2.88-1.63,5.91-1.66,8.97l-1.34-.64c1.89-1.58,4.26-2.26,6.5-2.63,2.26-.37,4.51-.44,6.68-.63l4.25-.36-3.79,1.96c-3.37,1.74-6.68,3.68-9.75,5.87-1.52,1.1-3.01,2.28-4.23,3.63-.6.67-1.14,1.4-1.4,2.13-.13.36-.17.7-.11.99.04.17.05.19.14.33.09.12.22.24.37.37.63.5,1.49.92,2.35,1.37.43.23.87.46,1.32.76.22.15.45.31.67.52.11.1.23.23.32.34l.24.32c1.24,1.71,1.86,3.65,2.37,5.53.49,1.9.82,3.8,1.22,5.66l.56,2.85.45,2.87c1.05,7.68,1.01,15.49-.16,23.14-1.19,7.64-3.49,15.11-6.86,22.05l-.28.58-.39-.51-4.41-5.74.66-.22c-.19,6.69-.96,13.36-2.3,19.91-1.34,6.55-3.23,12.99-5.63,19.23l-.25.65-.3-.63-2.91-6.13.59-.08c-.54,3.22-1.52,6.36-2.92,9.32l-.23.5-.33-.44-2.26-3.04.6-.11c-3.78,14.22-11.61,27.36-22.44,37.4l-.39.36-.37-.39c-2.72-2.87-5.78-5.42-9.1-7.56l.88-.24c-2.62,5.54-6.38,10.54-10.98,14.61l-.51.45-.46-.5-2.81-3.02,1.13-.09-1.47,2.25-.35.53-.58-.28-2.08-1,1.01-.39c-1.54,3.81-4.18,7.16-7.53,9.55l-.61.44-.48-.59-3.63-4.5,1.44-.25c-.89,2.67-2.45,5.11-4.48,7.06l-.76.73-.56-.9c-1.27-2.02-2.89-3.82-4.76-5.29l1.26-.19c-3.84,5.62-8,11.06-12.64,16.08-4.64,5.02-9.78,9.62-15.47,13.48l-.88.6-.51-.93-3.71-6.75,1.82-.22c-1.41,5.34-4.38,10.25-8.42,14.01l-1.04.97-.55-1.31-2.11-5.06,1.8.05c-3.61,7.46-8.49,14.47-15.06,19.74-3.28,2.61-6.99,4.74-11,6.07-4.01,1.35-8.22,1.85-12.36,2.03-8.25.3-16.74-.56-24.48-3.83-3.85-1.63-7.45-3.89-10.54-6.73-3.08-2.84-5.65-6.29-7.27-10.18l-1.88-4.49,3.05,3.78c.69.85,1.43,1.6,2.32,2.15.88.56,1.91.96,2.96,1.33l-.72,1.03c-3.97-4.96-6.5-11.03-7.25-17.32l-.55-4.66,1.63,4.39,1.24,3.34-1.04.23c-.6-9.2-1.25-18.52-.05-27.75.59-4.6,1.64-9.16,3.29-13.5,1.65-4.33,3.91-8.46,6.87-12.02l.15.12c-2.88,3.6-5.04,7.73-6.59,12.06-1.55,4.33-2.5,8.86-3,13.43-.98,9.16-.32,18.39.4,27.59l.29,3.72-1.33-3.49-1.27-3.33,1.07-.26c.79,6.07,3.3,11.9,7.16,16.63l1.44,1.77-2.17-.74c-1.09-.37-2.2-.79-3.25-1.43-1.05-.64-1.94-1.51-2.68-2.42l1.17-.71c1.58,3.67,4.05,6.93,7.02,9.6,2.97,2.68,6.44,4.81,10.15,6.33,7.46,3.07,15.7,3.81,23.77,3.46,4.04-.17,8.06-.67,11.83-1.95,3.78-1.26,7.28-3.27,10.41-5.77,6.26-5.03,10.99-11.82,14.48-19.08l.95-1.98.85,2.03,2.12,5.06-1.59-.34c3.76-3.51,6.52-8.1,7.87-13.07l.65-2.37,1.17,2.16,3.68,6.76-1.39-.34c5.56-3.73,10.62-8.21,15.2-13.13,4.59-4.92,8.72-10.26,12.55-15.82l.53-.77.73.58c2.03,1.6,3.77,3.56,5.13,5.75l-1.32-.17c1.84-1.75,3.25-3.95,4.09-6.35l.5-1.43.94,1.18,3.59,4.54-1.09-.15c3.12-2.18,5.61-5.27,7.08-8.8l.31-.73.71.35,2.07,1.02-.93.25,1.49-2.23.51-.76.61.67,2.78,3.05-.97-.05c4.5-3.89,8.2-8.72,10.81-14.08l.3-.63.57.38c3.38,2.23,6.48,4.87,9.23,7.83l-.77-.03c10.75-9.78,18.72-22.68,22.53-36.77l.18-.68.42.56,2.25,3.05-.56.06c1.38-2.89,2.36-5.98,2.9-9.14l.17-.98.42.9,2.89,6.14-.55.02c2.43-6.19,4.28-12.61,5.57-19.13,1.29-6.52,2.03-13.16,2.18-19.8l.02-1.02.63.81,4.46,5.7-.68.07c3.25-6.92,5.41-14.32,6.49-21.87,1.06-7.55.99-15.25-.13-22.78l-.48-2.81-.59-2.79c-.43-1.89-.78-3.77-1.27-5.58-.49-1.8-1.1-3.59-2.14-4.99l-.2-.26c-.06-.08-.1-.12-.17-.18-.13-.12-.29-.24-.47-.36-.36-.23-.76-.45-1.18-.67-.84-.45-1.73-.85-2.61-1.54-.22-.18-.44-.38-.64-.65-.2-.24-.39-.67-.43-.97-.13-.66-.03-1.3.16-1.84.39-1.09,1.05-1.91,1.71-2.68,1.36-1.51,2.9-2.73,4.48-3.88,3.17-2.28,6.5-4.25,9.95-6.05l.46,1.6c-2.24.2-4.44.25-6.56.59-2.11.33-4.17.95-5.71,2.23l-1.36,1.13.02-1.77c.04-3.24.68-6.47,1.8-9.49,1.11-3.03,2.66-5.85,4.32-8.55,3.35-5.38,7.11-10.42,9.89-15.99l1.08.9c-8.55,6.38-15.81,14.53-21.06,23.86l-1.12,2,.1-2.28c.39-9.3,2.58-18.51,6.45-26.94l.47.41c-6.39,3.83-11.23,10.22-13.2,17.47l-.18-.05Z"/>
          <path class="cls-1" d="M258.93,346.12c2.08,1.45,4.49,2.43,7.01,2.97,2.51.57,5.12.75,7.71.79,2.6.03,5.21-.04,7.81-.18,2.6-.15,5.2-.45,7.73-1.11-2.51.73-5.11,1.11-7.71,1.34-2.61.21-5.21.36-7.83.41-2.62.03-5.26-.07-7.86-.57-2.6-.48-5.15-1.41-7.4-2.88l.53-.78Z"/>
          <path class="cls-1" d="M118.03,345.4c.7.16,1.23.2,1.78.25.55.05,1.1.1,1.69.22.57.11,1.14.26,1.71.47.57.22,1.14.47,1.72.9-.63.36-1.26.5-1.9.57-.63.06-1.27.03-1.88-.09-.61-.12-1.24-.32-1.83-.68-.58-.36-1.14-.92-1.28-1.64Z"/>
          <path class="cls-1" d="M230.68,345.92c-10.65,2.34-21.48,3.81-32.35,4.39,10.84-.89,21.6-2.66,32.13-5.3l.22.92Z"/>
          <path class="cls-1" d="M241.23,342.9c-2.8,1.3-5.79,2.23-8.87,2.74l-.11-.94c3.03-.19,6.07-.8,8.98-1.8Z"/>
          <path class="cls-1" d="M297.57,344.87c2.92.18,5.97-.8,8.31-2.76-2.12,2.19-5.14,3.57-8.31,3.7v-.94Z"/>
          <path class="cls-1" d="M241.43,257.3c-.46,1.47-1.02,2.8-1.54,4.16l-.81,2c-.26.67-.52,1.33-.79,2l-1.46-1c.85-.71,1.74-1.36,2.66-1.98.93-.61,1.89-1.19,2.94-1.66-.61.98-1.33,1.84-2.06,2.67-.75.82-1.52,1.61-2.34,2.35l-2.49,2.23,1.03-3.24c.23-.72.51-1.42.83-2.11.3-.69.69-1.34,1.07-1.99.82-1.27,1.75-2.47,2.96-3.44Z"/>
        </g>
        <g>
          <path class="cls-1" d="M315.97,166.23c1.04.62,1.79,1.57,2.35,2.61.53,1.05.88,2.22.78,3.43-.63-1.02-1.1-2.01-1.62-2.99-.5-.99-1.04-1.94-1.51-3.05Z"/>
          <path class="cls-1" d="M314.95,171.84c.74.6,1.16,1.44,1.42,2.31.23.87.3,1.81-.03,2.71-.42-.85-.64-1.65-.88-2.46-.21-.82-.44-1.61-.51-2.56Z"/>
          <path class="cls-1" d="M319.72,178.1c.44.73.6,1.48.69,2.24.06.76.05,1.53-.24,2.33-.45-.73-.6-1.48-.69-2.24-.06-.76-.05-1.53.24-2.33Z"/>
          <path class="cls-1" d="M319.48,186.43c.38.89.39,1.84.23,2.75-.18.9-.53,1.79-1.21,2.48-.01-.96.14-1.8.29-2.65.17-.85.33-1.68.69-2.57Z"/>
          <path class="cls-1" d="M316.81,195.79c.39.64.4,1.36.26,2.03-.16.66-.49,1.3-1.12,1.71-.04-.74.08-1.32.2-1.92.15-.59.3-1.17.66-1.82Z"/>
        </g>
        <path class="cls-1" d="M103.93,341.11c3.46-3.83,5.98-8.69,7.11-13.98-.19,5.41-1.84,10.88-4.85,15.67l-2.26-1.7Z"/>
        <path class="cls-1" d="M238.57,30.63c1.88-2.69,4.03-5.18,6.41-7.41l1.3-1.22-.22,1.73c-.18,1.43-.12,2.9.2,4.32l-.96.05c.43-2.38,1.62-4.59,3.35-6.22l.36-.35.09.48c.26,1.36.65,2.73,1.49,3.84.83,1.07,2.2,1.87,3.63,1.66-1.41.31-2.89-.41-3.83-1.49-.96-1.1-1.46-2.51-1.81-3.89l.46.13c-1.53,1.65-2.51,3.79-2.76,5.99l-.27,2.4-.69-2.35c-.44-1.51-.62-3.1-.52-4.68l1.08.51c-2.17,2.31-4.1,4.84-5.73,7.54l-1.58-1.03Z"/>
        <path class="cls-1" d="M243.94,70.34c1.5.61,2.96.9,4.49,1.04,1.52.17,3.09.16,4.69.43-1.55.48-3.16.66-4.78.51-.81-.09-1.62-.26-2.39-.58-.76-.32-1.47-.77-2.01-1.39Z"/>
        <path class="cls-1" d="M242.8,74.53c.62-.21,1.12-.19,1.63-.15.51.07,1,.17,1.56.52-.52.4-1.11.47-1.66.41-.56-.08-1.11-.28-1.53-.78Z"/>
        <path class="cls-1" d="M250.53,76.3c-.95.76-2.09,1.17-3.25,1.39-1.17.19-2.38.21-3.53-.19,1.16-.36,2.26-.53,3.37-.74,1.11-.18,2.21-.4,3.42-.47Z"/>
        <g>
          <path class="cls-1" d="M245.15,266.76c-.19.87-.61,1.57-1.09,2.23-.5.64-1.06,1.24-1.84,1.67.19-.87.61-1.58,1.09-2.23.5-.64,1.06-1.24,1.84-1.67Z"/>
          <path class="cls-1" d="M244.31,272.6c-.3,1.18-.64,2.23-.9,3.33-.28,1.09-.48,2.17-.78,3.36-.45-1.15-.42-2.41-.14-3.59.31-1.17.88-2.3,1.81-3.1Z"/>
          <path class="cls-1" d="M239.58,268.69c.01.64-.16,1.11-.38,1.57-.24.45-.52.86-1.04,1.23-.17-.62-.03-1.17.2-1.66.26-.48.62-.91,1.22-1.14Z"/>
          <path class="cls-1" d="M248.75,251.15c-.13.86-.5,1.55-.93,2.21-.45.64-.96,1.24-1.71,1.68.13-.86.5-1.55.93-2.21.45-.64.96-1.24,1.71-1.68Z"/>
          <path class="cls-1" d="M235.42,247.42c-.29.94-.8,1.69-1.36,2.4-.58.69-1.22,1.34-2.09,1.81.29-.94.79-1.69,1.36-2.4.59-.69,1.23-1.34,2.09-1.81Z"/>
          <path class="cls-1" d="M216.3,297.7c.68.69.95,1.67.94,2.61-.03.94-.33,1.91-1.05,2.57.02-.96.1-1.76.11-2.59.03-.83-.02-1.64,0-2.6Z"/>
          <path class="cls-1" d="M211.63,302.07c.44,1.06.47,2.22.28,3.33-.21,1.1-.64,2.18-1.43,3.02.11-1.14.33-2.15.5-3.19.2-1.03.35-2.05.65-3.16Z"/>
          <path class="cls-1" d="M213.75,308.26c.27.86.18,1.72-.03,2.53-.24.81-.6,1.59-1.27,2.19-.02-.9.16-1.67.36-2.44.23-.77.46-1.52.93-2.28Z"/>
          <path class="cls-1" d="M207.7,312.82c.42.9.39,1.92.15,2.85-.26.92-.75,1.81-1.57,2.38.18-.97.45-1.78.66-2.62.24-.84.43-1.67.76-2.6Z"/>
          <path class="cls-1" d="M202.53,312.16c.43,1.57.23,3.28-.33,4.81-.58,1.52-1.56,2.93-2.93,3.83.81-1.4,1.52-2.73,2.04-4.16.55-1.42.9-2.89,1.21-4.47Z"/>
          <path class="cls-1" d="M195.01,319.81c.2.8,0,1.58-.36,2.26-.38.66-.93,1.26-1.71,1.51.24-.78.56-1.36.89-1.97.34-.6.66-1.18,1.19-1.8Z"/>
          <path class="cls-1" d="M184.93,325.01c.12.57-.05,1.02-.29,1.42-.26.38-.6.72-1.17.86-.02-.58.15-.99.38-1.36.25-.36.54-.69,1.08-.91Z"/>
          <path class="cls-1" d="M8.04,279.65c.23,1.98.35,3.9.59,5.82.21,1.92.52,3.82.75,5.8-.94-1.76-1.45-3.72-1.69-5.69-.21-1.97-.17-3.99.35-5.92Z"/>
          <path class="cls-1" d="M12.02,280.87c.3.87.38,1.68.48,2.49.07.82.13,1.62.01,2.54-.6-.71-.85-1.58-.95-2.45-.07-.87.01-1.77.46-2.58Z"/>
          <path class="cls-1" d="M16.73,267.33c.14,1.46.08,2.86.04,4.26-.07,1.4-.13,2.8-.4,4.24-.48-1.39-.59-2.85-.55-4.28.08-1.44.31-2.88.91-4.22Z"/>
          <path class="cls-1" d="M16.3,282.43c.4.44.51.9.55,1.36.01.46-.04.93-.39,1.41-.4-.44-.51-.9-.55-1.36-.01-.46.05-.93.39-1.41Z"/>
          <path class="cls-1" d="M12.17,291.09c.43.54.58,1.1.66,1.68.05.58.03,1.16-.28,1.78-.44-.54-.58-1.1-.66-1.68-.05-.58-.03-1.16.28-1.78Z"/>
          <path class="cls-1" d="M10.94,300.97c.64.81,1.01,1.71,1.32,2.63.28.93.49,1.88.42,2.91-.65-.81-1.02-1.71-1.32-2.63-.28-.93-.49-1.88-.42-2.91Z"/>
          <path class="cls-1" d="M16.19,312.37c.71.45,1.16,1.06,1.57,1.69.38.65.69,1.34.76,2.18-.71-.45-1.17-1.06-1.57-1.69-.37-.65-.69-1.34-.76-2.18Z"/>
          <path class="cls-1" d="M13.56,318.45c.7.24,1.2.57,1.71.91.49.37.97.73,1.42,1.32-.74.1-1.41-.17-1.97-.55-.54-.41-1.01-.94-1.16-1.68Z"/>
          <path class="cls-1" d="M20.67,323.47c.7.05,1.22.28,1.73.55.5.3.97.62,1.37,1.19-.7.11-1.3-.08-1.84-.37-.53-.31-1.01-.72-1.27-1.38Z"/>
        </g>
        <path class="cls-1" d="M194.3,302.19c.21,1.27.22,2.57.09,3.86-.12,1.29-.45,2.56-.88,3.79-.45,1.22-1.01,2.42-1.75,3.5-.73,1.09-1.59,2.09-2.57,2.98l-.81.74.08-1.1c.12-1.75-.4-3.54-1.41-4.97l.78-.09c-1.12,2.51-2.74,4.81-4.8,6.61-2.03,1.83-4.46,3.21-7.05,3.97,2.48-1.06,4.71-2.59,6.6-4.44,1.86-1.88,3.42-4.06,4.43-6.49l.3-.72.48.63c1.19,1.58,1.74,3.61,1.56,5.57l-.73-.37c.94-.82,1.77-1.75,2.49-2.78.71-1.03,1.35-2.11,1.83-3.27.5-1.15.84-2.37,1.09-3.61.24-1.24.33-2.52.29-3.8Z"/>
        <path class="cls-1" d="M313.8,204.49c.54,2.23.6,4.6.19,6.89-.39,2.3-1.24,4.53-2.52,6.5l-.77,1.17-.02-1.41c-.02-1.35-.2-2.7-.53-4.01-.33-1.31-.77-2.59-1.38-3.8l.83-.21c.07,2.49-.2,4.99-.85,7.38-.32,1.2-.69,2.38-1.19,3.51-.49,1.13-1.04,2.24-1.69,3.28.5-1.12.97-2.25,1.34-3.41.36-1.16.7-2.33.94-3.52.46-2.38.68-4.8.58-7.21l-.08-1.96.91,1.74c.66,1.26,1.18,2.59,1.51,3.98.32,1.39.49,2.81.48,4.23l-.78-.23c1.23-1.86,2.13-3.96,2.66-6.15.5-2.2.66-4.49.39-6.77Z"/>
        <path class="cls-1" d="M282.38,116.81c.73,2.85,1.88,5.56,3.47,7.98,1.57,2.43,3.54,4.58,5.82,6.34l1.36,1.04-1.69-.22c-1.34-.17-2.42-.91-3.37-1.61-.96-.71-1.89-1.46-2.78-2.25-1.8-1.56-3.47-3.27-4.96-5.12,1.74,1.61,3.52,3.16,5.38,4.6.93.72,1.89,1.4,2.85,2.08.96.66,1.94,1.27,2.98,1.39l-.33.83c-2.41-1.79-4.42-4.09-5.93-6.67-1.49-2.59-2.5-5.45-2.81-8.39Z"/>
        <path class="cls-1" d="M289.68,248.88c-1.26,4.73-2.81,9.34-4.41,13.93-1.62,4.58-3.3,9.13-5.22,13.6-1.89,4.47-4.02,8.84-4.81,13.6-.39,2.37-.49,4.78-.29,7.17.19,2.39.74,4.74,1.44,7.01.73,2.27,1.71,4.43,2.84,6.5,1.17,2,2.41,4.21,3.97,5.35,1.58,1.15,3.81,1.32,6.15,1.25,2.35-.1,4.96-.15,7.47.19,2.52.36,5.08,1.02,7.4,2.26,2.33,1.24,4.38,3.01,5.82,5.23,1.43,2.21,2.27,4.88,1.89,7.54-.18,1.32-.77,2.64-1.78,3.54-.98.89-2.36,1.39-3.63,1.09l.04-.28c1.18.03,2.24-.59,2.93-1.44.69-.85.97-1.95,1-3.04.02-2.21-.91-4.39-2.27-6.13-1.37-1.75-3.21-3.13-5.22-4.06-2.04-.92-4.26-1.49-6.55-1.72-1.14-.13-2.3-.22-3.47-.24h-3.61c-1.25-.02-2.56-.08-3.9-.35-1.33-.28-2.72-.81-3.87-1.72-1.15-.91-1.96-2.03-2.62-3.12-.65-1.09-1.24-2.19-1.77-3.34-1.05-2.28-1.78-4.69-2.31-7.11-1.05-4.86-1.18-9.84-.56-14.72.63-4.88,1.95-9.69,3.51-14.29,1.61-4.59,3.46-9.09,5.38-13.57,1.93-4.47,3.92-8.91,6.19-13.24l.26.1Z"/>
        <path class="cls-1" d="M227.69,289.61c1.6,2.4,2.31,5.36,2.37,8.26.03,1.45-.07,2.91-.37,4.33-.3,1.42-.81,2.78-1.4,4.09l-1.81,3.84c-.58,1.28-1.12,2.57-1.67,3.86-1.05,2.6-2.04,5.26-3.35,7.72l-1.26-1.92c1.93-.28,3.93-.21,5.85.26.96.24,1.89.59,2.77,1.03.88.45,1.56.88,2.15,1.08.57.22,1.43.25,2.35.35.89.1,1.79.18,2.68.31,1.79.23,3.57.51,5.35.93v.28c-1.8.34-3.6.55-5.39.71-.9.09-1.79.14-2.69.2-.87.04-1.82.15-2.99-.08-1.15-.26-2.03-.76-2.75-1.08-.73-.32-1.48-.61-2.26-.83-1.54-.47-3.17-.67-4.8-.6l-2.5.12,1.24-2.04c1.44-2.38,3.2-4.55,4.63-6.93.69-1.19,1.33-2.43,1.81-3.72.47-1.29.82-2.64,1.03-3.99.22-1.35.37-2.7.54-4.02.18-1.32.36-2.64.46-3.96.2-2.65.12-5.3-.26-8.11l.26-.1Z"/>
        <path class="cls-3" d="M252.32,338.74c-2.65,2.19-6.09,3.41-9.53,3.38"/>
      </g>
      <path class="cls-1" d="M294.93,39.63c.64-1.47,1.39-2.89,2.36-4.27.5-.68,1.05-1.34,1.69-1.96.65-.6,1.38-1.16,2.2-1.62.86-.48,1.77-.92,2.76-1.2.98-.27,2.05-.26,3.05.08.99.33,1.94.93,2.63,1.76.68.83,1.12,1.9.94,2.98l-.42.27c-1.97-.44-2.99-.16-4.07-.1-.53.05-1.03.02-1.59-.08-.56-.11-1.17-.16-1.74-.04-.61.14-1.23.36-1.85.66-.63.28-1.26.63-1.87,1.04-1.25.79-2.45,1.8-3.71,2.78l-.4-.3Z"/>
    </g>
  </g>
</svg>