<?xml version="1.0" encoding="UTF-8"?>
<svg id="Layer_2" data-name="Layer 2" xmlns="http://www.w3.org/2000/svg" viewBox="0 0 191 208.34">
  <defs>
    <style>
      .cls-1 {
        fill: #fcb79f;
      }

      .cls-2 {
        fill: #629b66;
      }

      .cls-3 {
        stroke-dasharray: 0 31.06;
      }

      .cls-3, .cls-4, .cls-5 {
        fill: none;
        stroke: #cbc8c1;
        stroke-linecap: round;
        stroke-linejoin: round;
        stroke-width: 22px;
      }

      .cls-5 {
        stroke-dasharray: 0 33.8;
      }

      .cls-6 {
        fill: #605d5b;
      }

      .cls-7 {
        fill: #fff;
        font-family: Impact, Impact;
        font-size: 28.57px;
      }

      .cls-8 {
        fill: #dbb358;
      }

      .cls-9 {
        fill: #ff8b7b;
      }

      .cls-10 {
        opacity: 0;
      }
    </style>
  </defs>
  <g id="Layer_3" data-name="Layer 3">
    <g>
      <g>
        <path class="cls-9" d="M180,197.34c-1,0-151.27,0-151.36,0-.04,0-9.16,0-9.2,0h-8.44V11h169v186.34Z"/>
        <g class="cls-10">
          <line class="cls-4" x1="180" y1="197.34" x2="180" y2="197.34"/>
          <path class="cls-5" d="M146.2,197.34c-44.59,0-117.49,0-117.55,0h-.74"/>
          <line class="cls-4" x1="11" y1="197.34" x2="11" y2="197.34"/>
          <path class="cls-3" d="M11,166.28V26.53"/>
          <line class="cls-4" x1="11" y1="11" x2="11" y2="11"/>
          <line class="cls-5" x1="44.8" y1="11" x2="163.1" y2="11"/>
          <line class="cls-4" x1="180" y1="11" x2="180" y2="11"/>
          <line class="cls-3" x1="180" y1="42.06" x2="180" y2="181.81"/>
        </g>
      </g>
      <g>
        <path class="cls-6" d="M114.56,109.23c18,1.14,32.16,8.97,31.62,17.51s-15.57,14.53-33.57,13.4c-2.05-.13-4.04-.35-5.97-.64,4.89,2.02,10.72,3.38,17.04,3.78,18,1.14,33.1-5.93,33.72-15.78s-13.47-18.75-31.47-19.89c-6.17-.39-12,.19-17.02,1.51,1.84-.04,3.72,0,5.65.12Z"/>
        <path class="cls-6" d="M81.39,109.04c-18,1.14-32.16,8.97-31.62,17.51.54,8.53,15.57,14.53,33.57,13.4,2.05-.13,4.04-.35,5.97-.64-4.89,2.02-10.72,3.38-17.04,3.78-18,1.14-33.1-5.93-33.72-15.78s13.47-18.75,31.47-19.89c6.17-.39,12,.19,17.02,1.51-1.84-.04-3.72,0-5.65.12Z"/>
        <ellipse class="cls-6" cx="98.16" cy="126.48" rx="45.67" ry="32.66"/>
        <ellipse class="cls-8" cx="98.09" cy="126.21" rx="38.84" ry="25.32"/>
        <path class="cls-1" d="M121.08,140.06c-3.34-.61-4.96-2.29-4.58-3.85s2.91-.37,6.18-.66c.38-.03.53-.94.88-.83-.84-.54-1.87-.98-3.03-1.27-3.3-.81-6.33,0-6.77,1.8s1.87,3.92,5.16,4.73c1.13.28,2.53,2.41,3.2.29-.34-.05-.45-.1-1.04-.21Z"/>
        <path class="cls-1" d="M92.63,145.09c-3.34-.61-4.96-2.29-4.58-3.85s2.91-.37,6.18-.66c.38-.03.53-.94.88-.83-.84-.54-1.87-.98-3.03-1.27-3.3-.81-6.33,0-6.77,1.8s1.87,3.92,5.16,4.73c1.13.28,2.53,2.41,3.2.29-.34-.05-.45-.1-1.04-.21Z"/>
        <path class="cls-1" d="M109.44,113.02c-3.34-.61-4.96-2.29-4.58-3.85s2.91-.37,6.18-.66c.38-.03.53-.94.88-.83-.84-.54-1.87-.98-3.03-1.27-3.3-.81-6.33,0-6.77,1.8s1.87,3.92,5.16,4.73c1.13.28,2.53,2.41,3.2.29-.34-.05-.45-.1-1.04-.21Z"/>
        <path class="cls-1" d="M79.26,121.04c-3.34-.61-4.96-2.29-4.58-3.85s2.91-.37,6.18-.66c.38-.03.53-.94.88-.83-.84-.54-1.87-.98-3.03-1.27-3.3-.81-6.33,0-6.77,1.8s1.87,3.92,5.16,4.73c1.13.28,2.53,2.41,3.2.29-.34-.05-.45-.1-1.04-.21Z"/>
        <path class="cls-1" d="M100.33,128.27c-3.34-.61-4.96-2.29-4.58-3.85s2.91-.37,6.18-.66c.38-.03.53-.94.88-.83-.84-.54-1.87-.98-3.03-1.27-3.3-.81-6.33,0-6.77,1.8s1.87,3.92,5.16,4.73c1.13.28,2.53,2.41,3.2.29-.34-.05-.45-.1-1.04-.21Z"/>
        <ellipse class="cls-2" cx="72.05" cy="129.83" rx="1.57" ry="1.49"/>
        <ellipse class="cls-2" cx="92.64" cy="111.26" rx="1.57" ry="1.49"/>
        <ellipse class="cls-2" cx="119.39" cy="125.83" rx="1.57" ry="1.49"/>
        <ellipse class="cls-2" cx="104.66" cy="142.94" rx="1.57" ry="1.49"/>
      </g>
      <text class="cls-7" transform="translate(53.74 57.99) rotate(-1)"><tspan x="0" y="0">Malaga</tspan></text>
    </g>
  </g>
</svg>